<svg id="background" xmlns="http://www.w3.org/2000/svg" xmlns:xlink="http://www.w3.org/1999/xlink" viewBox="0 0 1921 1081" shape-rendering="geometricPrecision" text-rendering="geometricPrecision"><style><![CDATA[#background-circle1_to {animation: background-circle1_to__to 5s linear 1 normal forwards}@keyframes background-circle1_to__to { 0% {transform: translate(998.893807px,515.879989px)} 100% {transform: translate(1000.855694px,178.589989px)} }#background-layer-2_ts {animation: background-layer-2_ts__ts 3000ms infinite linear}@keyframes background-layer-2_ts__ts { 0% {transform: translate(1021.139954px,626.085770px) skewX(0deg)} 50% {transform: translate(1021.139954px,626.085770px) skewX(2deg)} 100% {transform: translate(1021.139954px,626.085770px) skewX(0deg)} }#background-path169_to {animation: background-path169_to__to 3000ms infinite linear}@keyframes background-path169_to__to { 0% {transform: translate(0.500000px,0.500000px)} 100% {transform: translate(148.622266px,0.499938px); opacity: 0;} }#background-path170_to {animation: background-path170_to__to 3000ms infinite linear}@keyframes background-path170_to__to { 0% {transform: translate(-3.518332px,0.500000px)} 100% {transform: translate(-63.979887px,0.500000px); opacity: 0;} }]]></style><g id="background-layer-3"><rect id="background-rect1" width="1920" height="1080" rx="0" ry="0" transform="matrix(1 0 0 1 0.50000000000000 0.50000000000000)" fill="rgb(157,211,226)" stroke="rgb(0,0,0)" stroke-width="1" stroke-miterlimit="10"/></g><g id="background-layer-4"><g id="background-circle1_to" transform="translate(998.893807,515.879989)"><circle id="background-circle1" r="178.090000" transform="translate(-0.000032,0.000011)" fill="rgb(253,240,115)" stroke="none" stroke-width="1"/></g></g><g id="background-layer-1"><path id="background-path1" d="M0,432.910000C0,432.910000,253.430000,510.740000,530.190000,428.680000C530.190000,428.680000,868.740000,319.550000,949.940000,327.680000C949.940000,327.680000,1068.940000,316.450000,1205.770000,374.680000C1205.770000,374.680000,1338.020000,431.870000,1514.190000,435.450000C1514.190000,435.450000,1730.910000,430.640000,1920,326.830000L1920,1080L0,1080Z" transform="matrix(1 0 0 1 0.50000000000000 0.50000000000000)" fill="rgb(216,202,170)" stroke="none" stroke-width="1"/><path id="background-path2" d="M0,421.430000C0,421.430000,184.230000,491.510000,559.940000,490.360000C559.940000,490.360000,710.450000,513.360000,843.720000,562.740000C843.720000,562.740000,999.980000,632.830000,1236.660000,582.280000C1236.660000,582.280000,1415.660000,570.670000,1606.110000,600.600000C1606.110000,600.600000,1846.320000,634.110000,1920,608.060000L1920,1080L0,1080Z" transform="matrix(1 0 0 1 0.50000000000000 0.50000000000000)" fill="rgb(143,122,83)" stroke="none" stroke-width="1"/><path id="background-path3" d="M0,638.190000L316.740000,675C316.740000,675,398.740000,678.060000,412.490000,675C412.490000,675,607.810000,642.060000,705.090000,634.400000C705.090000,634.400000,777.090000,625.210000,1205.260000,694.910000C1205.260000,694.910000,1631.340000,728.610000,1920,618.320000L1920,1080L0,1080Z" transform="matrix(1 0 0 1 0.50000000000000 0.50000000000000)" fill="rgb(183,205,56)" stroke="none" stroke-width="1"/><path id="background-path4" d="M0,958.360000L322.870000,949.170000C322.870000,949.170000,964.740000,794.450000,1421.260000,812.830000C1421.260000,812.830000,1574.660000,828.150000,1920,740.830000L1920,1080L0,1080Z" transform="matrix(1 0 0 1 0.50000000000000 0.50000000000000)" fill="rgb(0,138,66)" stroke="none" stroke-width="1"/></g><g id="background-layer-2_ts" transform="translate(1021.139954,626.085770) scale(1,1)"><g id="background-layer-2" transform="translate(-1021.139954,-626.085770)"><path id="background-path5" d="M555,813.870000C555,813.870000,472,808.740000,458.230000,837.340000C458.230000,837.340000,464.610000,840.910000,502.530000,844.490000C502.530000,844.490000,533.810000,849.600000,529.470000,861.850000C529.470000,861.850000,538.940000,872.570000,598.670000,858.790000C598.670000,858.790000,621.520000,866.450000,637.410000,862.360000C637.410000,862.360000,650.230000,862.360000,664.020000,848.570000C664.020000,848.570000,691.020000,844.570000,697.910000,838.340000C698.399873,837.909991,698.812502,837.399279,699.130000,836.830000C702.830000,829.680000,654.830000,808.740000,645.130000,809.260000Z" transform="matrix(1 0 0 1 0.50000000000000 0.50000000000000)" fill="rgb(168,179,58)" stroke="none" stroke-width="1"/><path id="background-path6" d="M560.320000,834.280000L600.150000,834.280000C600.150000,834.280000,530.450000,669.600000,643.810000,665.770000C643.810000,665.770000,646.870000,660.660000,620.060000,662.450000C620.060000,662.450000,649.680000,637.680000,651.210000,623.890000C651.210000,623.890000,631.810000,649.430000,608.830000,661.680000C608.830000,661.680000,599.640000,667.300000,587.380000,679.040000L594.530000,635.640000C594.530000,635.640000,647.130000,583,635.380000,558C635.380000,558,629.770000,584.550000,613.380000,597.830000C613.380000,597.830000,602.650000,608.550000,595.500000,616.720000C595.500000,616.720000,601.630000,573.320000,573.040000,534.510000C573.040000,534.510000,605.210000,598.850000,565.380000,675.450000C565.380000,675.450000,551.080000,647.870000,539.380000,636.640000C539.380000,636.640000,524.570000,626.940000,521,592.720000C521,592.720000,513.850000,626.430000,532.740000,642.720000C532.740000,642.720000,534.280000,652.420000,504.660000,635.060000C504.660000,635.060000,509.330000,646.270000,526.710000,652.160000C527.500000,652.430000,528.320000,652.680000,529.170000,652.930000C548.570000,658.550000,556.230000,684.330000,556.230000,684.330000C556.230000,684.330000,564.400000,692.760000,551.130000,761.700000C551.130000,761.770000,552.150000,820,560.320000,834.280000Z" transform="matrix(1 0 0 1 0.50000000000000 0.50000000000000)" fill="rgb(60,46,34)" stroke="none" stroke-width="1"/><path id="background-path7" d="M590.450000,700.490000C590.450000,700.490000,578.700000,723.490000,602.190000,734.700000C602.190000,734.700000,613.940000,714.790000,590.450000,700.490000Z" transform="matrix(1 0 0 1 0.50000000000000 0.50000000000000)" fill="rgb(126,160,73)" stroke="none" stroke-width="1"/><path id="background-path8" d="M610.870000,723.470000C610.870000,723.470000,606.790000,744.400000,632.320000,747C632.320000,747,632.830000,725.520000,610.870000,723.470000Z" transform="matrix(1 0 0 1 0.50000000000000 0.50000000000000)" fill="rgb(128,182,70)" stroke="none" stroke-width="1"/><path id="background-path9" d="M584.830000,731.640000C584.830000,731.640000,578.700000,748.110000,592.490000,753.470000C592.490000,753.470000,599.770000,739.680000,584.830000,731.640000Z" transform="matrix(1 0 0 1 0.50000000000000 0.50000000000000)" fill="rgb(131,176,81)" stroke="none" stroke-width="1"/><path id="background-path10" d="M605.130000,684.400000C605.130000,684.400000,597.600000,707.400000,625.430000,709.400000C625.430000,709.430000,627,682.620000,605.130000,684.400000Z" transform="matrix(1 0 0 1 0.50000000000000 0.50000000000000)" fill="rgb(136,181,86)" stroke="none" stroke-width="1"/><path id="background-path11" d="M637.430000,719.130000C637.430000,719.130000,635.130000,738.020000,659.890000,739.550000C659.890000,739.550000,657.090000,717.090000,637.430000,719.130000Z" transform="matrix(1 0 0 1 0.50000000000000 0.50000000000000)" fill="rgb(164,182,65)" stroke="none" stroke-width="1"/><path id="background-path12" d="M632.320000,696.870000C632.320000,696.870000,634.620000,718.110000,663.980000,712.490000C664,712.490000,655,687.380000,632.320000,696.870000Z" transform="matrix(1 0 0 1 0.50000000000000 0.50000000000000)" fill="rgb(164,182,65)" stroke="none" stroke-width="1"/><path id="background-path13" d="M666.530000,704.080000C666.530000,704.080000,667.530000,721.940000,690.020000,717.600000C690,717.600000,685.430000,698.480000,666.530000,704.080000Z" transform="matrix(1 0 0 1 0.50000000000000 0.50000000000000)" fill="rgb(168,186,58)" stroke="none" stroke-width="1"/><path id="background-path14" d="M683.380000,675.720000C683.380000,675.720000,697.680000,686.720000,714.790000,672.400000C714.790000,672.400000,699,656.060000,683.380000,675.720000Z" transform="matrix(1 0 0 1 0.50000000000000 0.50000000000000)" fill="rgb(170,188,64)" stroke="none" stroke-width="1"/><path id="background-path15" d="M648.630000,666C648.630000,666,669.850000,686.610000,686.890000,664.400000C686.890000,664.430000,670.880000,646.580000,648.630000,666Z" transform="matrix(1 0 0 1 0.50000000000000 0.50000000000000)" fill="rgb(137,187,69)" stroke="none" stroke-width="1"/><path id="background-path16" d="M634.230000,655.810000C634.230000,655.810000,655.330000,665.260000,667.760000,645.210000C667.760000,645.210000,647.380000,634.740000,634.230000,655.810000Z" transform="matrix(1 0 0 1 0.50000000000000 0.50000000000000)" fill="rgb(109,159,68)" stroke="none" stroke-width="1"/><path id="background-path17" d="M609.210000,654.790000C609.210000,654.790000,600.400000,635.890000,626.210000,623.640000C626.190000,623.640000,630.530000,648.530000,609.210000,654.790000Z" transform="matrix(1 0 0 1 0.50000000000000 0.50000000000000)" fill="rgb(122,185,77)" stroke="none" stroke-width="1"/><path id="background-path18" d="M653.260000,630.660000C653.260000,630.660000,669.980000,646.490000,687.720000,627.470000C687.720000,627.470000,666.660000,610.870000,653.260000,630.660000Z" transform="matrix(1 0 0 1 0.50000000000000 0.50000000000000)" fill="rgb(122,185,67)" stroke="none" stroke-width="1"/><path id="background-path19" d="M689.770000,631.430000C689.770000,631.430000,713.260000,642.150000,719.380000,623.130000C719.380000,623.130000,698.060000,611.640000,689.770000,631.430000Z" transform="matrix(1 0 0 1 0.50000000000000 0.50000000000000)" fill="rgb(157,193,39)" stroke="none" stroke-width="1"/><path id="background-path20" d="M675.720000,613.680000C675.720000,613.680000,689.720000,583.550000,716.060000,596.450000C716.060000,596.450000,709.940000,626.190000,675.720000,613.680000Z" transform="matrix(1 0 0 1 0.50000000000000 0.50000000000000)" fill="rgb(127,190,70)" stroke="none" stroke-width="1"/><path id="background-path21" d="M655.680000,616.750000C655.680000,616.750000,655.550000,591.600000,679.810000,585.850000C679.810000,585.850000,681,618,655.680000,616.750000Z" transform="matrix(1 0 0 1 0.50000000000000 0.50000000000000)" fill="rgb(135,174,55)" stroke="none" stroke-width="1"/><path id="background-path22" d="M651.850000,601.320000C651.850000,601.320000,640.620000,581.260000,661.550000,569.260000C661.550000,569.260000,671.260000,594.710000,651.850000,601.320000Z" transform="matrix(1 0 0 1 0.50000000000000 0.50000000000000)" fill="rgb(150,182,77)" stroke="none" stroke-width="1"/><path id="background-path23" d="M667.750000,589C667.750000,589,662.060000,559.260000,685.680000,550.190000C685.680000,550.230000,693.480000,581.640000,667.750000,589Z" transform="matrix(1 0 0 1 0.50000000000000 0.50000000000000)" fill="rgb(154,190,59)" stroke="none" stroke-width="1"/><path id="background-path24" d="M599.890000,602.190000C599.890000,602.190000,591.890000,576.400000,616.360000,568.360000C616.360000,568.360000,623.380000,595.300000,599.890000,602.190000Z" transform="matrix(1 0 0 1 0.50000000000000 0.50000000000000)" fill="rgb(154,190,59)" stroke="none" stroke-width="1"/><path id="background-path25" d="M594.150000,563.130000C594.150000,563.130000,576.150000,542.570000,606.530000,510.910000C606.530000,510.910000,623.770000,547,594.150000,563.130000Z" transform="matrix(1 0 0 1 0.50000000000000 0.50000000000000)" fill="rgb(167,192,52)" stroke="none" stroke-width="1"/><path id="background-path26" d="M639.210000,552.400000C639.210000,552.400000,634.540000,524.450000,656.410000,514.870000C656.410000,514.870000,664.490000,545.510000,639.210000,552.400000Z" transform="matrix(1 0 0 1 0.50000000000000 0.50000000000000)" fill="rgb(155,181,51)" stroke="none" stroke-width="1"/><path id="background-path27" d="M626.550000,563.130000C626.550000,563.130000,612.400000,549.340000,623.130000,525.600000C623.130000,525.600000,644.540000,535.170000,626.550000,563.130000Z" transform="matrix(1 0 0 1 0.50000000000000 0.50000000000000)" fill="rgb(144,182,83)" stroke="none" stroke-width="1"/><path id="background-path28" d="M579.470000,593.240000C579.470000,593.240000,556.870000,594.150000,563.380000,558.150000C563.380000,558.150000,586,563.220000,579.470000,593.240000Z" transform="matrix(1 0 0 1 0.50000000000000 0.50000000000000)" fill="rgb(131,158,72)" stroke="none" stroke-width="1"/><path id="background-path29" d="M574.490000,552.400000C574.490000,552.400000,546.490000,558.790000,535.430000,537.020000C535.430000,537,564,519.790000,574.490000,552.400000Z" transform="matrix(1 0 0 1 0.50000000000000 0.50000000000000)" fill="rgb(119,164,59)" stroke="none" stroke-width="1"/><path id="background-path30" d="M525.090000,519.850000C525.090000,519.850000,526.230000,534.020000,550.740000,528.280000C550.740000,528.280000,542.700000,510.280000,525.090000,519.850000Z" transform="matrix(1 0 0 1 0.50000000000000 0.50000000000000)" fill="rgb(167,186,49)" stroke="none" stroke-width="1"/><path id="background-path31" d="M562.200000,659.640000C562.200000,659.640000,542.320000,655.640000,558.020000,628.900000C558,628.900000,571.750000,637,562.200000,659.640000Z" transform="matrix(1 0 0 1 0.50000000000000 0.50000000000000)" fill="rgb(110,167,55)" stroke="none" stroke-width="1"/><path id="background-path32" d="M541.940000,630.910000C541.940000,630.910000,522.020000,616.840000,539.640000,593.240000C539.640000,593.240000,561.090000,601,541.940000,630.910000Z" transform="matrix(1 0 0 1 0.50000000000000 0.50000000000000)" fill="rgb(107,169,57)" stroke="none" stroke-width="1"/><path id="background-path33" d="M527.380000,601.320000C527.380000,601.320000,517.040000,583.810000,532.380000,573.470000C532.360000,573.470000,540.790000,586.280000,527.380000,601.320000Z" transform="matrix(1 0 0 1 0.50000000000000 0.50000000000000)" fill="rgb(128,163,66)" stroke="none" stroke-width="1"/><path id="background-path34" d="M514,529.650000C514,529.650000,506,555.470000,527.400000,564.650000C527.380000,564.660000,538.490000,539.440000,514,529.650000Z" transform="matrix(1 0 0 1 0.50000000000000 0.50000000000000)" fill="rgb(165,186,64)" stroke="none" stroke-width="1"/><path id="background-path35" d="M494.060000,537C494.060000,537,485.260000,554.680000,501.340000,563.110000C501.340000,563.130000,513.210000,545,494.060000,537Z" transform="matrix(1 0 0 1 0.50000000000000 0.50000000000000)" fill="rgb(165,186,64)" stroke="none" stroke-width="1"/><path id="background-path36" d="M476.450000,558.150000C476.450000,558.150000,478.740000,581.510000,502.450000,577.680000C502.490000,577.680000,500.190000,555.470000,476.450000,558.150000Z" transform="matrix(1 0 0 1 0.50000000000000 0.50000000000000)" fill="rgb(124,161,66)" stroke="none" stroke-width="1"/><path id="background-path37" d="M480.280000,585.850000C480.280000,585.850000,486.400000,607.170000,514.740000,598.360000C514.740000,598.360000,504.790000,577.170000,480.280000,585.850000Z" transform="matrix(1 0 0 1 0.50000000000000 0.50000000000000)" fill="rgb(121,164,62)" stroke="none" stroke-width="1"/><path id="background-path38" d="M466.490000,592.130000C466.490000,592.130000,465.340000,613.300000,489.490000,614.450000C489.470000,614.450000,487.940000,593.170000,466.490000,592.130000Z" transform="matrix(1 0 0 1 0.50000000000000 0.50000000000000)" fill="rgb(142,183,63)" stroke="none" stroke-width="1"/><path id="background-path39" d="M463.810000,621C463.810000,621,468.870000,645.870000,498.320000,636.890000C498.320000,636.840000,494.450000,611,463.810000,621Z" transform="matrix(1 0 0 1 0.50000000000000 0.50000000000000)" fill="rgb(142,183,63)" stroke="none" stroke-width="1"/><path id="background-path40" d="M473.380000,659.640000C473.380000,659.640000,479.510000,633.210000,508.230000,648.150000C508.230000,648.150000,498.660000,671.130000,473.380000,659.640000Z" transform="matrix(1 0 0 1 0.50000000000000 0.50000000000000)" fill="rgb(140,182,73)" stroke="none" stroke-width="1"/><path id="background-path41" d="M466.480000,679.750000C466.480000,679.750000,472.020000,660.750000,491.660000,669.210000C491.660000,669.210000,485.620000,688.370000,466.480000,679.750000Z" transform="matrix(1 0 0 1 0.50000000000000 0.50000000000000)" fill="rgb(164,182,60)" stroke="none" stroke-width="1"/><path id="background-path42" d="M471.850000,700.490000C471.850000,700.490000,468.020000,684.790000,494.850000,681.980000C494.830000,682,488.700000,706.490000,471.850000,700.490000Z" transform="matrix(1 0 0 1 0.50000000000000 0.50000000000000)" fill="rgb(164,182,60)" stroke="none" stroke-width="1"/><path id="background-path43" d="M494.830000,706C494.830000,706,490.620000,685.330000,514.740000,679.770000C514.740000,679.750000,522,698.700000,494.830000,706Z" transform="matrix(1 0 0 1 0.50000000000000 0.50000000000000)" fill="rgb(124,159,68)" stroke="none" stroke-width="1"/><path id="background-path44" d="M517.810000,701.440000C517.810000,701.440000,522.020000,671.140000,548.060000,679.750000C548.060000,679.750000,546.910000,700.720000,517.810000,701.440000Z" transform="matrix(1 0 0 1 0.50000000000000 0.50000000000000)" fill="rgb(138,185,76)" stroke="none" stroke-width="1"/><path id="background-path45" d="M529.470000,731.640000C529.470000,731.640000,527.380000,701.860000,550.740000,694.730000C550.740000,694.730000,559.900000,723.600000,529.470000,731.640000Z" transform="matrix(1 0 0 1 0.50000000000000 0.50000000000000)" fill="rgb(114,161,64)" stroke="none" stroke-width="1"/><path id="background-path46" d="M239.740000,730.650000C239.740000,730.650000,195.350000,727.910000,188,743.200000C188,743.200000,191.410000,745.120000,211.690000,747.030000C211.690000,747.030000,228.420000,749.760000,226.100000,756.320000C226.100000,756.320000,231.170000,762.050000,263.100000,754.680000C263.100000,754.680000,275.320000,758.770000,283.820000,756.590000C283.820000,756.590000,290.680000,756.590000,298.050000,749.210000C298.050000,749.210000,312.510000,747.100000,316.180000,743.740000C316.445453,743.513061,316.665939,743.238302,316.830000,742.930000C318.830000,739.110000,293.140000,727.930000,287.950000,728.180000Z" transform="matrix(1 0 0 1 0.50000000000000 0.50000000000000)" fill="rgb(168,179,58)" stroke="none" stroke-width="1"/><path id="background-path47" d="M242.610000,741.570000L263.910000,741.570000C263.910000,741.570000,226.630000,653.480000,287.260000,651.430000C287.260000,651.430000,288.900000,648.700000,274.560000,649.650000C274.560000,649.650000,290.410000,636.410000,291.220000,629.030000C291.220000,629.030000,280.850000,642.690000,268.550000,649.240000C264.435941,651.959417,260.594705,655.070584,257.080000,658.530000L260.910000,635.310000C260.910000,635.310000,289,607.180000,282.760000,593.800000C282.760000,593.800000,279.760000,608,271.010000,615.100000C271.010000,615.100000,265.280000,620.840000,261.450000,625.210000C261.450000,625.210000,264.730000,601.990000,249.450000,581.210000C249.450000,581.210000,266.660000,615.630000,245.360000,656.600000C245.360000,656.600000,237.710000,641.850000,231.430000,635.840000C231.430000,635.840000,223.510000,630.650000,221.590000,612.350000C221.590000,612.350000,217.770000,630.350000,227.880000,639.120000C227.880000,639.120000,228.700000,644.310000,212.880000,635.020000C212.880000,635.020000,215.380000,641.020000,224.680000,644.170000C225.100000,644.310000,225.540000,644.450000,225.990000,644.580000C236.370000,647.580000,240.470000,661.380000,240.470000,661.380000C240.470000,661.380000,244.840000,665.890000,237.740000,702.760000C237.690000,702.780000,238.240000,733.920000,242.610000,741.570000Z" transform="matrix(1 0 0 1 0.50000000000000 0.50000000000000)" fill="rgb(60,46,34)" stroke="none" stroke-width="1"/><path id="background-path48" d="M258.720000,670C258.720000,670,252.440000,682.290000,265,688.300000C265,688.300000,271.290000,677.650000,258.720000,670Z" transform="matrix(1 0 0 1 0.50000000000000 0.50000000000000)" fill="rgb(126,160,73)" stroke="none" stroke-width="1"/><path id="background-path49" d="M269.650000,682.290000C269.650000,682.290000,267.460000,693.490000,281.120000,694.860000C281.120000,694.860000,281.390000,683.390000,269.650000,682.290000Z" transform="matrix(1 0 0 1 0.50000000000000 0.50000000000000)" fill="rgb(128,182,70)" stroke="none" stroke-width="1"/><path id="background-path50" d="M255.720000,686.660000C255.720000,686.660000,252.440000,695.470000,259.810000,698.340000C259.810000,698.340000,263.710000,691,255.720000,686.660000Z" transform="matrix(1 0 0 1 0.50000000000000 0.50000000000000)" fill="rgb(131,176,81)" stroke="none" stroke-width="1"/><path id="background-path51" d="M266.570000,661.400000C266.570000,661.400000,262.570000,673.690000,277.430000,674.780000C277.430000,674.780000,278.250000,660.440000,266.570000,661.400000Z" transform="matrix(1 0 0 1 0.50000000000000 0.50000000000000)" fill="rgb(136,181,86)" stroke="none" stroke-width="1"/><path id="background-path52" d="M283.850000,680C283.850000,680,282.620000,690.110000,295.850000,690.930000C295.870000,690.900000,294.370000,678.880000,283.850000,680Z" transform="matrix(1 0 0 1 0.50000000000000 0.50000000000000)" fill="rgb(164,182,65)" stroke="none" stroke-width="1"/><path id="background-path53" d="M281.120000,668.070000C281.120000,668.070000,282.350000,679.430000,298.050000,676.420000C298.050000,676.420000,293.270000,663,281.120000,668.070000Z" transform="matrix(1 0 0 1 0.50000000000000 0.50000000000000)" fill="rgb(164,182,65)" stroke="none" stroke-width="1"/><path id="background-path54" d="M299.420000,671.920000C299.420000,671.920000,299.970000,681.470000,311.980000,679.150000C312,679.150000,309.530000,668.930000,299.420000,671.920000Z" transform="matrix(1 0 0 1 0.50000000000000 0.50000000000000)" fill="rgb(168,186,58)" stroke="none" stroke-width="1"/><path id="background-path55" d="M308.430000,656.760000C308.430000,656.760000,316.080000,662.630000,325.230000,654.980000C325.230000,655,316.760000,646.240000,308.430000,656.760000Z" transform="matrix(1 0 0 1 0.50000000000000 0.50000000000000)" fill="rgb(170,188,64)" stroke="none" stroke-width="1"/><path id="background-path56" d="M289.840000,651.570000C289.840000,651.570000,301.190000,662.570000,310.310000,650.710000C310.310000,650.710000,301.740000,641.170000,289.840000,651.570000Z" transform="matrix(1 0 0 1 0.50000000000000 0.50000000000000)" fill="rgb(137,187,69)" stroke="none" stroke-width="1"/><path id="background-path57" d="M282.140000,646.100000C282.140000,646.100000,293.430000,651.160000,300.080000,640.440000C300.080000,640.440000,289.180000,634.840000,282.140000,646.100000Z" transform="matrix(1 0 0 1 0.50000000000000 0.50000000000000)" fill="rgb(109,159,68)" stroke="none" stroke-width="1"/><path id="background-path58" d="M268.760000,645.560000C268.760000,645.560000,264.050000,635.450000,277.840000,628.900000C277.840000,628.900000,280.160000,642.210000,268.760000,645.560000Z" transform="matrix(1 0 0 1 0.50000000000000 0.50000000000000)" fill="rgb(122,185,77)" stroke="none" stroke-width="1"/><path id="background-path59" d="M292.320000,632.650000C292.320000,632.650000,301.260000,641.120000,310.750000,630.940000C310.750000,630.940000,299.490000,622.070000,292.320000,632.650000Z" transform="matrix(1 0 0 1 0.50000000000000 0.50000000000000)" fill="rgb(122,185,67)" stroke="none" stroke-width="1"/><path id="background-path60" d="M311.850000,633.060000C311.850000,633.060000,324.410000,638.800000,327.690000,628.620000C327.690000,628.620000,316.290000,622.480000,311.850000,633.060000Z" transform="matrix(1 0 0 1 0.50000000000000 0.50000000000000)" fill="rgb(157,193,39)" stroke="none" stroke-width="1"/><path id="background-path61" d="M304.340000,623.570000C304.340000,623.570000,311.850000,607.450000,325.910000,614.350000C325.910000,614.350000,322.640000,630.260000,304.340000,623.570000Z" transform="matrix(1 0 0 1 0.50000000000000 0.50000000000000)" fill="rgb(127,190,70)" stroke="none" stroke-width="1"/><path id="background-path62" d="M293.610000,625.210000C293.610000,625.210000,293.550000,611.760000,306.520000,608.680000C306.520000,608.680000,307.140000,625.900000,293.610000,625.210000Z" transform="matrix(1 0 0 1 0.50000000000000 0.50000000000000)" fill="rgb(135,174,55)" stroke="none" stroke-width="1"/><path id="background-path63" d="M291.570000,617C291.570000,617,285.570000,606.260000,296.760000,599.850000C296.760000,599.810000,302,613.420000,291.570000,617Z" transform="matrix(1 0 0 1 0.50000000000000 0.50000000000000)" fill="rgb(150,182,77)" stroke="none" stroke-width="1"/><path id="background-path64" d="M300.070000,610.390000C300.070000,610.390000,297.070000,594.480000,309.660000,589.630000C309.660000,589.630000,313.830000,606.430000,300.070000,610.390000Z" transform="matrix(1 0 0 1 0.50000000000000 0.50000000000000)" fill="rgb(154,190,59)" stroke="none" stroke-width="1"/><path id="background-path65" d="M263.770000,617.420000C263.770000,617.420000,259.470000,603.630000,272.580000,599.330000C272.580000,599.330000,276.340000,613.740000,263.770000,617.420000Z" transform="matrix(1 0 0 1 0.50000000000000 0.50000000000000)" fill="rgb(154,190,59)" stroke="none" stroke-width="1"/><path id="background-path66" d="M260.700000,596.530000C260.700000,596.530000,251.070000,585.530000,267.330000,568.600000C267.330000,568.600000,276.540000,587.920000,260.700000,596.530000Z" transform="matrix(1 0 0 1 0.50000000000000 0.50000000000000)" fill="rgb(167,192,52)" stroke="none" stroke-width="1"/><path id="background-path67" d="M284.810000,590.790000C284.810000,590.790000,282.310000,575.840000,294,570.720000C294,570.720000,298.330000,587.100000,284.810000,590.790000Z" transform="matrix(1 0 0 1 0.50000000000000 0.50000000000000)" fill="rgb(155,181,51)" stroke="none" stroke-width="1"/><path id="background-path68" d="M278,596.530000C278,596.530000,270.430000,589.150000,276.160000,576.450000C276.200000,576.450000,287.650000,581.570000,278,596.530000Z" transform="matrix(1 0 0 1 0.50000000000000 0.50000000000000)" fill="rgb(144,182,83)" stroke="none" stroke-width="1"/><path id="background-path69" d="M252.850000,612.630000C252.850000,612.630000,240.760000,613.120000,244.240000,593.860000C244.240000,593.860000,256.330000,596.580000,252.850000,612.630000Z" transform="matrix(1 0 0 1 0.50000000000000 0.50000000000000)" fill="rgb(131,158,72)" stroke="none" stroke-width="1"/><path id="background-path70" d="M250.190000,590.790000C250.190000,590.790000,235.190000,594.210000,229.290000,582.560000C229.290000,582.560000,244.570000,573.340000,250.190000,590.790000Z" transform="matrix(1 0 0 1 0.50000000000000 0.50000000000000)" fill="rgb(119,164,59)" stroke="none" stroke-width="1"/><path id="background-path71" d="M223.760000,573.380000C223.760000,573.380000,224.370000,580.960000,237.480000,577.890000C237.480000,577.890000,233.180000,568.260000,223.760000,573.380000Z" transform="matrix(1 0 0 1 0.50000000000000 0.50000000000000)" fill="rgb(167,186,49)" stroke="none" stroke-width="1"/><path id="background-path72" d="M243.610000,648.150000C243.610000,648.150000,233,646,241.380000,631.710000C241.380000,631.710000,248.720000,636.070000,243.610000,648.150000Z" transform="matrix(1 0 0 1 0.50000000000000 0.50000000000000)" fill="rgb(110,167,55)" stroke="none" stroke-width="1"/><path id="background-path73" d="M232.770000,632.790000C232.770000,632.790000,222.120000,625.260000,231.540000,612.630000C231.540000,612.630000,243,616.810000,232.770000,632.790000Z" transform="matrix(1 0 0 1 0.50000000000000 0.50000000000000)" fill="rgb(107,169,57)" stroke="none" stroke-width="1"/><path id="background-path74" d="M225,617C225,617,219.470000,607.630000,227.660000,602.100000C227.650000,602.060000,232.160000,608.910000,225,617Z" transform="matrix(1 0 0 1 0.50000000000000 0.50000000000000)" fill="rgb(128,163,66)" stroke="none" stroke-width="1"/><path id="background-path75" d="M217.820000,578.620000C217.820000,578.620000,213.520000,592.430000,224.990000,597.350000C225,597.350000,230.930000,583.860000,217.820000,578.620000Z" transform="matrix(1 0 0 1 0.50000000000000 0.50000000000000)" fill="rgb(165,186,64)" stroke="none" stroke-width="1"/><path id="background-path76" d="M207.170000,582.560000C207.170000,582.560000,202.450000,592.020000,211.060000,596.560000C211.060000,596.530000,217.410000,586.830000,207.170000,582.560000Z" transform="matrix(1 0 0 1 0.50000000000000 0.50000000000000)" fill="rgb(165,186,64)" stroke="none" stroke-width="1"/><path id="background-path77" d="M197.740000,593.860000C197.740000,593.860000,198.970000,606.360000,211.670000,604.310000C211.670000,604.310000,210.440000,592.430000,197.740000,593.860000Z" transform="matrix(1 0 0 1 0.50000000000000 0.50000000000000)" fill="rgb(124,161,66)" stroke="none" stroke-width="1"/><path id="background-path78" d="M199.790000,608.680000C199.790000,608.680000,203.070000,620.090000,218.230000,615.370000C218.230000,615.370000,212.900000,604,199.790000,608.680000Z" transform="matrix(1 0 0 1 0.50000000000000 0.50000000000000)" fill="rgb(121,164,62)" stroke="none" stroke-width="1"/><path id="background-path79" d="M192.420000,612C192.420000,612,191.800000,623.320000,204.710000,623.940000C204.710000,624,203.890000,612.600000,192.420000,612Z" transform="matrix(1 0 0 1 0.50000000000000 0.50000000000000)" fill="rgb(142,183,63)" stroke="none" stroke-width="1"/><path id="background-path80" d="M191,627.460000C191,627.460000,193.710000,640.760000,209.460000,635.960000C209.440000,636,207.370000,622.130000,191,627.460000Z" transform="matrix(1 0 0 1 0.50000000000000 0.50000000000000)" fill="rgb(142,183,63)" stroke="none" stroke-width="1"/><path id="background-path81" d="M196.100000,648.150000C196.100000,648.150000,199.380000,634,214.750000,642C214.750000,642,209.620000,654.300000,196.100000,648.150000Z" transform="matrix(1 0 0 1 0.50000000000000 0.50000000000000)" fill="rgb(140,182,73)" stroke="none" stroke-width="1"/><path id="background-path82" d="M192.410000,658.910000C192.410000,658.910000,195.410000,648.770000,205.880000,653.270000C205.880000,653.270000,202.650000,663.520000,192.410000,658.910000Z" transform="matrix(1 0 0 1 0.50000000000000 0.50000000000000)" fill="rgb(164,182,60)" stroke="none" stroke-width="1"/><path id="background-path83" d="M195.280000,670C195.280000,670,193.280000,661.610000,207.580000,660.100000C207.580000,660.100000,204.300000,673.210000,195.280000,670Z" transform="matrix(1 0 0 1 0.50000000000000 0.50000000000000)" fill="rgb(164,182,60)" stroke="none" stroke-width="1"/><path id="background-path84" d="M207.580000,672.940000C207.580000,672.940000,205.320000,661.880000,218.230000,658.940000C218.230000,658.910000,222.120000,669.050000,207.580000,672.940000Z" transform="matrix(1 0 0 1 0.50000000000000 0.50000000000000)" fill="rgb(124,159,68)" stroke="none" stroke-width="1"/><path id="background-path85" d="M219.870000,670.510000C219.870000,670.510000,222.120000,654.300000,236.050000,658.910000C236.050000,658.910000,235.440000,670.130000,219.870000,670.510000Z" transform="matrix(1 0 0 1 0.50000000000000 0.50000000000000)" fill="rgb(138,185,76)" stroke="none" stroke-width="1"/><path id="background-path86" d="M226.110000,686.660000C226.110000,686.660000,224.990000,670.740000,237.480000,666.920000C237.480000,666.920000,242.380000,682.360000,226.110000,686.660000Z" transform="matrix(1 0 0 1 0.50000000000000 0.50000000000000)" fill="rgb(114,161,64)" stroke="none" stroke-width="1"/><path id="background-path87" d="M404.110000,690.270000C404.110000,690.270000,374.520000,688.440000,369.600000,698.640000C369.600000,698.640000,371.880000,699.910000,385.400000,701.190000C385.400000,701.190000,396.550000,703.010000,395.010000,707.380000C395.010000,707.380000,398.380000,711.200000,419.680000,706.280000C419.680000,706.280000,427.830000,709.020000,433.500000,707.560000C433.500000,707.560000,438.070000,707.560000,442.990000,702.640000C442.990000,702.640000,452.630000,701.230000,455.070000,698.990000C455.247124,698.837123,455.396049,698.654352,455.510000,698.450000C456.830000,695.910000,439.710000,688.450000,436.250000,688.620000Z" transform="matrix(1 0 0 1 0.50000000000000 0.50000000000000)" fill="rgb(168,179,58)" stroke="none" stroke-width="1"/><path id="background-path88" d="M406,697.540000L420.210000,697.540000C420.210000,697.540000,395.350000,638.820000,435.780000,637.450000C435.780000,637.450000,436.870000,635.630000,427.310000,636.270000C427.310000,636.270000,437.870000,627.440000,438.420000,622.520000C438.420000,622.520000,431.500000,631.630000,423.300000,636C420.553467,637.807866,417.991164,639.881154,415.650000,642.190000L418.200000,626.710000C418.200000,626.710000,437,608,432.790000,599C432.790000,599,430.790000,608.470000,424.960000,613.200000C424.960000,613.200000,421.140000,617.030000,418.590000,619.940000C419.529805,609.523175,416.690182,599.115956,410.590000,590.620000C404.489818,582.124044,422.070000,613.620000,407.860000,640.880000C407.860000,640.880000,402.760000,631.050000,398.580000,627.040000C398.580000,627.040000,393.300000,623.580000,392.020000,611.380000C392.020000,611.380000,389.470000,623.380000,396.210000,629.230000C396.210000,629.230000,396.760000,632.690000,386.210000,626.500000C386.210000,626.500000,387.880000,630.500000,394.080000,632.590000L394.950000,632.870000C401.870000,634.870000,404.610000,644.070000,404.610000,644.070000C404.610000,644.070000,407.520000,647.070000,402.780000,671.660000C402.740000,671.690000,403.110000,692.450000,406,697.540000Z" transform="matrix(1 0 0 1 0.50000000000000 0.50000000000000)" fill="rgb(60,46,34)" stroke="none" stroke-width="1"/><path id="background-path89" d="M416.770000,649.840000C416.770000,649.840000,412.580000,658,421,662C421,662,425.140000,654.930000,416.770000,649.840000Z" transform="matrix(1 0 0 1 0.50000000000000 0.50000000000000)" fill="rgb(126,160,73)" stroke="none" stroke-width="1"/><path id="background-path90" d="M424.050000,658C424.050000,658,422.590000,665.470000,431.700000,666.380000C431.700000,666.410000,431.880000,658.760000,424.050000,658Z" transform="matrix(1 0 0 1 0.50000000000000 0.50000000000000)" fill="rgb(128,182,70)" stroke="none" stroke-width="1"/><path id="background-path91" d="M414.760000,660.940000C414.760000,660.940000,412.580000,666.820000,417.490000,668.730000C418.209055,667.342718,418.323732,665.720190,417.806950,664.245562C417.290168,662.770934,416.187741,661.574938,414.760000,660.940000Z" transform="matrix(1 0 0 1 0.50000000000000 0.50000000000000)" fill="rgb(131,176,81)" stroke="none" stroke-width="1"/><path id="background-path92" d="M422,644.100000C422,644.100000,419.320000,652.290000,429.240000,653.020000C429.240000,653,429.790000,643.460000,422,644.100000Z" transform="matrix(1 0 0 1 0.50000000000000 0.50000000000000)" fill="rgb(136,181,86)" stroke="none" stroke-width="1"/><path id="background-path93" d="M433.520000,656.480000C433.520000,656.480000,432.700000,663.220000,441.520000,663.770000C441.530000,663.770000,440.530000,655.750000,433.520000,656.480000Z" transform="matrix(1 0 0 1 0.50000000000000 0.50000000000000)" fill="rgb(164,182,65)" stroke="none" stroke-width="1"/><path id="background-path94" d="M431.700000,648.550000C431.700000,648.550000,432.520000,656.120000,442.990000,654.110000C443,654.110000,439.800000,645.160000,431.700000,648.550000Z" transform="matrix(1 0 0 1 0.50000000000000 0.50000000000000)" fill="rgb(164,182,65)" stroke="none" stroke-width="1"/><path id="background-path95" d="M443.900000,651.120000C443.900000,651.120000,444.260000,657.480000,452.270000,655.940000C452.270000,655.940000,450.640000,649.120000,443.900000,651.120000Z" transform="matrix(1 0 0 1 0.50000000000000 0.50000000000000)" fill="rgb(168,186,58)" stroke="none" stroke-width="1"/><path id="background-path96" d="M449.910000,641C449.910000,641,455.010000,644.920000,461.110000,639.820000C461.110000,639.820000,455.460000,634,449.910000,641Z" transform="matrix(1 0 0 1 0.50000000000000 0.50000000000000)" fill="rgb(170,188,64)" stroke="none" stroke-width="1"/><path id="background-path97" d="M437.510000,637.550000C437.510000,637.550000,445.080000,644.900000,451.160000,636.970000C451.160000,637,445.450000,630.610000,437.510000,637.550000Z" transform="matrix(1 0 0 1 0.50000000000000 0.50000000000000)" fill="rgb(137,187,69)" stroke="none" stroke-width="1"/><path id="background-path98" d="M432.380000,633.900000C432.380000,633.900000,439.900000,637.270000,444.380000,630.120000C440.013744,627.955626,434.717518,629.623937,432.380000,633.900000Z" transform="matrix(1 0 0 1 0.50000000000000 0.50000000000000)" fill="rgb(109,159,68)" stroke="none" stroke-width="1"/><path id="background-path99" d="M423.460000,633.540000C423.460000,633.540000,420.320000,626.800000,429.510000,622.430000C429.510000,622.430000,431.060000,631.310000,423.460000,633.540000Z" transform="matrix(1 0 0 1 0.50000000000000 0.50000000000000)" fill="rgb(122,185,77)" stroke="none" stroke-width="1"/><path id="background-path100" d="M439.160000,624.930000C439.160000,624.930000,445.160000,630.580000,451.460000,623.800000C451.460000,623.800000,443.940000,617.880000,439.160000,624.930000Z" transform="matrix(1 0 0 1 0.50000000000000 0.50000000000000)" fill="rgb(122,185,67)" stroke="none" stroke-width="1"/><path id="background-path101" d="M452.180000,625.210000C452.180000,625.210000,460.560000,629.030000,462.750000,622.210000C462.750000,622.250000,455.140000,618.150000,452.180000,625.210000Z" transform="matrix(1 0 0 1 0.50000000000000 0.50000000000000)" fill="rgb(157,193,39)" stroke="none" stroke-width="1"/><path id="background-path102" d="M447.180000,618.880000C447.180000,618.880000,452.180000,608.140000,461.560000,612.730000C461.560000,612.730000,459.380000,623.340000,447.180000,618.880000Z" transform="matrix(1 0 0 1 0.50000000000000 0.50000000000000)" fill="rgb(127,190,70)" stroke="none" stroke-width="1"/><path id="background-path103" d="M440,620C440,620,440,611,448.600000,609C448.630000,609,449,620.430000,440,620Z" transform="matrix(1 0 0 1 0.50000000000000 0.50000000000000)" fill="rgb(135,174,55)" stroke="none" stroke-width="1"/><path id="background-path104" d="M438.660000,614.470000C438.660000,614.470000,434.660000,607.320000,442.120000,603.040000C442.120000,603,445.580000,612.110000,438.660000,614.470000Z" transform="matrix(1 0 0 1 0.50000000000000 0.50000000000000)" fill="rgb(150,182,77)" stroke="none" stroke-width="1"/><path id="background-path105" d="M444.330000,610.090000C444.330000,610.090000,442.330000,599.490000,450.730000,596.250000C450.730000,596.250000,453.510000,607.450000,444.330000,610.090000Z" transform="matrix(1 0 0 1 0.50000000000000 0.50000000000000)" fill="rgb(154,190,59)" stroke="none" stroke-width="1"/><path id="background-path106" d="M420.130000,614.780000C420.130000,614.780000,417.270000,605.590000,426.010000,602.720000C426,602.720000,428.510000,612.320000,420.130000,614.780000Z" transform="matrix(1 0 0 1 0.50000000000000 0.50000000000000)" fill="rgb(154,190,59)" stroke="none" stroke-width="1"/><path id="background-path107" d="M418.090000,600.850000C418.090000,600.850000,411.670000,593.520000,422.500000,582.230000C422.500000,582.230000,428.650000,595.120000,418.090000,600.850000Z" transform="matrix(1 0 0 1 0.50000000000000 0.50000000000000)" fill="rgb(167,192,52)" stroke="none" stroke-width="1"/><path id="background-path108" d="M434.160000,597C434.160000,597,432.490000,587,440.290000,583.610000C440.290000,583.640000,443.170000,594.570000,434.160000,597Z" transform="matrix(1 0 0 1 0.50000000000000 0.50000000000000)" fill="rgb(155,181,51)" stroke="none" stroke-width="1"/><path id="background-path109" d="M429.640000,600.850000C429.640000,600.850000,424.640000,595.940000,428.420000,587.470000C428.420000,587.470000,436.050000,590.880000,429.640000,600.850000Z" transform="matrix(1 0 0 1 0.50000000000000 0.50000000000000)" fill="rgb(144,182,83)" stroke="none" stroke-width="1"/><path id="background-path110" d="M412.850000,611.590000C412.850000,611.590000,404.790000,611.910000,407.120000,599.080000C407.120000,599.080000,415.170000,600.880000,412.850000,611.590000Z" transform="matrix(1 0 0 1 0.50000000000000 0.50000000000000)" fill="rgb(131,158,72)" stroke="none" stroke-width="1"/><path id="background-path111" d="M411.080000,597C411.080000,597,401.080000,599.270000,397.150000,591.510000C397.150000,591.540000,407.330000,585.400000,411.080000,597Z" transform="matrix(1 0 0 1 0.50000000000000 0.50000000000000)" fill="rgb(119,164,59)" stroke="none" stroke-width="1"/><path id="background-path112" d="M393.460000,585.420000C393.460000,585.420000,393.870000,590.470000,402.610000,588.420000C402.610000,588.420000,399.740000,582,393.460000,585.420000Z" transform="matrix(1 0 0 1 0.50000000000000 0.50000000000000)" fill="rgb(167,186,49)" stroke="none" stroke-width="1"/><path id="background-path113" d="M406.700000,635.270000C406.700000,635.270000,399.600000,633.830000,405.200000,624.270000C405.200000,624.300000,410.100000,627.210000,406.700000,635.270000Z" transform="matrix(1 0 0 1 0.50000000000000 0.50000000000000)" fill="rgb(110,167,55)" stroke="none" stroke-width="1"/><path id="background-path114" d="M399.470000,625C399.470000,625,392.370000,620,398.650000,611.570000C398.650000,611.590000,406.300000,614.370000,399.470000,625Z" transform="matrix(1 0 0 1 0.50000000000000 0.50000000000000)" fill="rgb(107,169,57)" stroke="none" stroke-width="1"/><path id="background-path115" d="M394.280000,614.470000C394.280000,614.470000,390.590000,608.230000,396.050000,604.540000C396.050000,604.540000,399.060000,609.110000,394.280000,614.470000Z" transform="matrix(1 0 0 1 0.50000000000000 0.50000000000000)" fill="rgb(128,163,66)" stroke="none" stroke-width="1"/><path id="background-path116" d="M389.500000,588.910000C389.500000,588.910000,386.630000,598.120000,394.280000,601.400000C394.280000,601.400000,398.240000,592.410000,389.500000,588.910000Z" transform="matrix(1 0 0 1 0.50000000000000 0.50000000000000)" fill="rgb(165,186,64)" stroke="none" stroke-width="1"/><path id="background-path117" d="M382.400000,591.540000C382.400000,591.540000,379.250000,597.850000,384.990000,600.850000C385,600.850000,389.220000,594.390000,382.400000,591.540000Z" transform="matrix(1 0 0 1 0.50000000000000 0.50000000000000)" fill="rgb(165,186,64)" stroke="none" stroke-width="1"/><path id="background-path118" d="M376.110000,599.080000C376.110000,599.080000,376.930000,607.410000,385.400000,606.080000C385.400000,606,384.580000,598.120000,376.110000,599.080000Z" transform="matrix(1 0 0 1 0.50000000000000 0.50000000000000)" fill="rgb(124,161,66)" stroke="none" stroke-width="1"/><path id="background-path119" d="M377.480000,609C377.480000,609,379.660000,616.610000,389.770000,613.470000C389.770000,613.420000,386.220000,605.860000,377.480000,609Z" transform="matrix(1 0 0 1 0.50000000000000 0.50000000000000)" fill="rgb(121,164,62)" stroke="none" stroke-width="1"/><path id="background-path120" d="M372.560000,611.190000C372.560000,611.190000,372.150000,618.740000,380.760000,619.190000C380.760000,619.150000,380.210000,611.570000,372.560000,611.190000Z" transform="matrix(1 0 0 1 0.50000000000000 0.50000000000000)" fill="rgb(142,183,63)" stroke="none" stroke-width="1"/><path id="background-path121" d="M371.610000,621.470000C371.610000,621.470000,373.410000,630.340000,383.910000,627.140000C383.910000,627.140000,382.530000,617.920000,371.610000,621.470000Z" transform="matrix(1 0 0 1 0.50000000000000 0.50000000000000)" fill="rgb(142,183,63)" stroke="none" stroke-width="1"/><path id="background-path122" d="M375,635.270000C375,635.270000,377.190000,625.840000,387.430000,631.170000C387.450000,631.170000,384,639.360000,375,635.270000Z" transform="matrix(1 0 0 1 0.50000000000000 0.50000000000000)" fill="rgb(140,182,73)" stroke="none" stroke-width="1"/><path id="background-path123" d="M372.560000,642.440000C372.560000,642.440000,374.560000,635.680000,381.560000,638.680000C381.540000,638.680000,379.390000,645.510000,372.560000,642.440000Z" transform="matrix(1 0 0 1 0.50000000000000 0.50000000000000)" fill="rgb(164,182,60)" stroke="none" stroke-width="1"/><path id="background-path124" d="M374.470000,649.840000C374.470000,649.840000,373.110000,644.240000,382.670000,643.230000C382.670000,643.230000,380.480000,652,374.470000,649.840000Z" transform="matrix(1 0 0 1 0.50000000000000 0.50000000000000)" fill="rgb(164,182,60)" stroke="none" stroke-width="1"/><path id="background-path125" d="M382.670000,651.790000C382.670000,651.790000,381.170000,644.420000,389.770000,642.440000C389.770000,642.440000,392.370000,649.200000,382.670000,651.790000Z" transform="matrix(1 0 0 1 0.50000000000000 0.50000000000000)" fill="rgb(124,159,68)" stroke="none" stroke-width="1"/><path id="background-path126" d="M390.860000,650.170000C390.860000,650.170000,392.370000,639.370000,401.650000,642.440000C401.650000,642.440000,401.240000,649.920000,390.860000,650.170000Z" transform="matrix(1 0 0 1 0.50000000000000 0.50000000000000)" fill="rgb(138,185,76)" stroke="none" stroke-width="1"/><path id="background-path127" d="M395,660.940000C395,660.940000,394.260000,650.330000,402.590000,647.780000C402.610000,647.780000,405.870000,658.070000,395,660.940000Z" transform="matrix(1 0 0 1 0.50000000000000 0.50000000000000)" fill="rgb(114,161,64)" stroke="none" stroke-width="1"/><path id="background-path128" d="M1610.660000,807.640000C1610.660000,807.640000,1497.290000,800.390000,1478.450000,840.840000C1478.450000,840.840000,1487.170000,845.840000,1538.970000,850.950000C1538.970000,850.950000,1581.700000,858.170000,1575.770000,875.510000C1575.770000,875.510000,1588.770000,890.680000,1670.330000,871.180000C1670.330000,871.180000,1701.550000,882.010000,1723.250000,876.230000C1723.250000,876.230000,1740.770000,876.230000,1759.610000,856.730000C1759.610000,856.730000,1796.530000,851.130000,1805.910000,842.250000C1806.584179,841.643044,1807.146108,840.922015,1807.570000,840.120000C1812.630000,830,1747.050000,800.390000,1733.800000,801.120000Z" transform="matrix(1 0 0 1 0.50000000000000 0.50000000000000)" fill="rgb(63,97,53)" stroke="none" stroke-width="1"/><path id="background-path129" d="M1636,827.460000L1690.420000,827.460000C1690.420000,827.460000,1595.190000,594.460000,1750.070000,589.090000C1750.070000,589.090000,1754.260000,581.870000,1717.630000,584.400000C1717.630000,584.400000,1758.090000,549.400000,1760.190000,529.860000C1760.190000,529.860000,1733.670000,565.980000,1702.280000,583.310000C1702.280000,583.310000,1689.720000,591.310000,1672.980000,607.870000L1682.750000,546.470000C1682.750000,546.470000,1754.600000,472.070000,1738.560000,436.680000C1738.560000,436.680000,1730.880000,474.240000,1708.560000,493.020000C1708.560000,493.020000,1693.910000,508.190000,1684.140000,519.750000C1684.140000,519.750000,1692.510000,458.350000,1653.440000,403.450000C1653.440000,403.450000,1697.440000,494.450000,1642.980000,602.810000C1642.980000,602.810000,1623.440000,563.810000,1607.400000,547.920000C1607.400000,547.920000,1587.160000,534.190000,1582.280000,485.800000C1582.280000,485.800000,1572.510000,533.470000,1598.280000,556.590000C1598.280000,556.590000,1600.370000,570.310000,1559.910000,545.750000C1559.910000,545.750000,1566.290000,561.600000,1590.030000,569.940000C1591.110000,570.320000,1592.240000,570.680000,1593.390000,571.030000C1619.910000,579.030000,1630.390000,615.460000,1630.390000,615.460000C1630.390000,615.460000,1641.550000,627.370000,1623.390000,724.890000C1623.400000,724.890000,1624.800000,807.240000,1636,827.460000Z" transform="matrix(1 0 0 1 0.50000000000000 0.50000000000000)" fill="rgb(60,46,34)" stroke="none" stroke-width="1"/><path id="background-path130" d="M1677.120000,638.210000C1677.120000,638.210000,1661.120000,670.710000,1693.170000,686.610000C1693.170000,686.610000,1709.220000,658.430000,1677.120000,638.210000Z" transform="matrix(1 0 0 1 0.50000000000000 0.50000000000000)" fill="rgb(126,160,73)" stroke="none" stroke-width="1"/><path id="background-path131" d="M1705,670.710000C1705,670.710000,1699.420000,700.330000,1734.300000,703.940000C1734.330000,703.940000,1735,673.620000,1705,670.710000Z" transform="matrix(1 0 0 1 0.50000000000000 0.50000000000000)" fill="rgb(128,182,70)" stroke="none" stroke-width="1"/><path id="background-path132" d="M1669.450000,682.270000C1669.450000,682.270000,1661.080000,705.570000,1679.910000,713.150000C1679.910000,713.150000,1689.860000,693.650000,1669.450000,682.270000Z" transform="matrix(1 0 0 1 0.50000000000000 0.50000000000000)" fill="rgb(131,176,81)" stroke="none" stroke-width="1"/><path id="background-path133" d="M1697.180000,615.460000C1697.180000,615.460000,1686.890000,647.960000,1724.910000,650.850000C1724.910000,650.850000,1727,612.930000,1697.180000,615.460000Z" transform="matrix(1 0 0 1 0.50000000000000 0.50000000000000)" fill="rgb(136,181,86)" stroke="none" stroke-width="1"/><path id="background-path134" d="M1741.310000,664.570000C1741.310000,664.570000,1738.170000,691.300000,1772.010000,693.470000C1772,693.470000,1768.170000,661.690000,1741.310000,664.570000Z" transform="matrix(1 0 0 1 0.50000000000000 0.50000000000000)" fill="rgb(164,182,65)" stroke="none" stroke-width="1"/><path id="background-path135" d="M1734.330000,633.090000C1734.330000,633.090000,1737.470000,663.090000,1777.590000,655.180000C1777.590000,655.180000,1765.380000,619.670000,1734.330000,633.090000Z" transform="matrix(1 0 0 1 0.50000000000000 0.50000000000000)" fill="rgb(164,182,65)" stroke="none" stroke-width="1"/><path id="background-path136" d="M1781.080000,643.290000C1781.080000,643.290000,1782.470000,668.550000,1813.170000,662.410000C1813.170000,662.410000,1806.890000,635.370000,1781.080000,643.290000Z" transform="matrix(1 0 0 1 0.50000000000000 0.50000000000000)" fill="rgb(168,186,58)" stroke="none" stroke-width="1"/><path id="background-path137" d="M1804.100000,603.180000C1804.100000,603.180000,1823.630000,618.710000,1847.010000,598.480000C1847,598.480000,1825.380000,575.370000,1804.100000,603.180000Z" transform="matrix(1 0 0 1 0.50000000000000 0.50000000000000)" fill="rgb(170,188,64)" stroke="none" stroke-width="1"/><path id="background-path138" d="M1756.620000,589.470000C1756.620000,589.470000,1785.620000,618.620000,1808.900000,587.190000C1808.900000,587.190000,1787,562,1756.620000,589.470000Z" transform="matrix(1 0 0 1 0.50000000000000 0.50000000000000)" fill="rgb(137,187,69)" stroke="none" stroke-width="1"/><path id="background-path139" d="M1737,575C1737,575,1765.830000,588.370000,1782.810000,560C1782.760000,560,1754.910000,545.210000,1737,575Z" transform="matrix(1 0 0 1 0.50000000000000 0.50000000000000)" fill="rgb(109,159,68)" stroke="none" stroke-width="1"/><path id="background-path140" d="M1702.760000,573.560000C1702.760000,573.560000,1690.760000,546.830000,1725.960000,529.500000C1726,529.500000,1731.890000,564.710000,1702.760000,573.560000Z" transform="matrix(1 0 0 1 0.50000000000000 0.50000000000000)" fill="rgb(122,185,77)" stroke="none" stroke-width="1"/><path id="background-path141" d="M1762.940000,539.430000C1762.940000,539.430000,1785.790000,561.820000,1810.030000,534.910000C1810,534.910000,1781.250000,511.440000,1762.940000,539.430000Z" transform="matrix(1 0 0 1 0.50000000000000 0.50000000000000)" fill="rgb(122,185,67)" stroke="none" stroke-width="1"/><path id="background-path142" d="M1812.820000,540.510000C1812.820000,540.510000,1844.910000,555.680000,1853.280000,528.780000C1853.280000,528.780000,1824.160000,512.520000,1812.820000,540.510000Z" transform="matrix(1 0 0 1 0.50000000000000 0.50000000000000)" fill="rgb(157,193,39)" stroke="none" stroke-width="1"/><path id="background-path143" d="M1793.630000,515.410000C1793.630000,515.410000,1812.820000,472.790000,1848.750000,491.030000C1848.750000,491,1840.380000,533.110000,1793.630000,515.410000Z" transform="matrix(1 0 0 1 0.50000000000000 0.50000000000000)" fill="rgb(127,190,70)" stroke="none" stroke-width="1"/><path id="background-path144" d="M1766.250000,519.760000C1766.250000,519.760000,1766.080000,484.170000,1799.250000,476.040000C1799.220000,476,1800.790000,521.570000,1766.250000,519.760000Z" transform="matrix(1 0 0 1 0.50000000000000 0.50000000000000)" fill="rgb(135,174,55)" stroke="none" stroke-width="1"/><path id="background-path145" d="M1761,497.930000C1761,497.930000,1745.650000,469.540000,1774.250000,452.570000C1774.270000,452.570000,1787.530000,488.570000,1761,497.930000Z" transform="matrix(1 0 0 1 0.50000000000000 0.50000000000000)" fill="rgb(150,182,77)" stroke="none" stroke-width="1"/><path id="background-path146" d="M1782.740000,480.560000C1782.740000,480.560000,1774.970000,438.480000,1807.240000,425.660000C1807.240000,425.660000,1817.890000,470.090000,1782.740000,480.560000Z" transform="matrix(1 0 0 1 0.50000000000000 0.50000000000000)" fill="rgb(154,190,59)" stroke="none" stroke-width="1"/><path id="background-path147" d="M1690,499.160000C1690,499.160000,1679,462.680000,1712.500000,451.300000C1712.530000,451.300000,1722.120000,489.410000,1690,499.160000Z" transform="matrix(1 0 0 1 0.50000000000000 0.50000000000000)" fill="rgb(154,190,59)" stroke="none" stroke-width="1"/><path id="background-path148" d="M1682.180000,443.900000C1682.180000,443.900000,1657.590000,414.830000,1699.100000,370.040000C1699.100000,370,1722.650000,421.150000,1682.180000,443.900000Z" transform="matrix(1 0 0 1 0.50000000000000 0.50000000000000)" fill="rgb(167,192,52)" stroke="none" stroke-width="1"/><path id="background-path149" d="M1743.750000,428.730000C1743.750000,428.730000,1737.370000,389.180000,1767.250000,375.640000C1767.250000,375.640000,1778.290000,419,1743.750000,428.730000Z" transform="matrix(1 0 0 1 0.50000000000000 0.50000000000000)" fill="rgb(155,181,51)" stroke="none" stroke-width="1"/><path id="background-path150" d="M1726.460000,443.900000C1726.460000,443.900000,1707.120000,424.400000,1721.770000,390.810000C1721.770000,390.810000,1751,404.350000,1726.460000,443.900000Z" transform="matrix(1 0 0 1 0.50000000000000 0.50000000000000)" fill="rgb(144,182,83)" stroke="none" stroke-width="1"/><path id="background-path151" d="M1662.120000,486.490000C1662.120000,486.490000,1631.250000,487.780000,1640.120000,436.860000C1640.150000,436.860000,1671,444,1662.120000,486.490000Z" transform="matrix(1 0 0 1 0.50000000000000 0.50000000000000)" fill="rgb(131,158,72)" stroke="none" stroke-width="1"/><path id="background-path152" d="M1655.320000,428.730000C1655.320000,428.730000,1617.120000,437.730000,1601.950000,406.970000C1602,407,1641,382.590000,1655.320000,428.730000Z" transform="matrix(1 0 0 1 0.50000000000000 0.50000000000000)" fill="rgb(119,164,59)" stroke="none" stroke-width="1"/><path id="background-path153" d="M1587.820000,382.680000C1587.820000,382.680000,1589.390000,402.730000,1622.880000,394.600000C1622.880000,394.600000,1611.890000,369.140000,1587.820000,382.680000Z" transform="matrix(1 0 0 1 0.50000000000000 0.50000000000000)" fill="rgb(167,186,49)" stroke="none" stroke-width="1"/><path id="background-path154" d="M1638.540000,580.420000C1638.540000,580.420000,1611.370000,574.710000,1632.820000,536.930000C1632.820000,536.930000,1651.580000,548.460000,1638.540000,580.420000Z" transform="matrix(1 0 0 1 0.50000000000000 0.50000000000000)" fill="rgb(110,167,55)" stroke="none" stroke-width="1"/><path id="background-path155" d="M1610.850000,539.790000C1610.850000,539.790000,1583.640000,519.880000,1607.710000,486.490000C1607.710000,486.490000,1637,497.530000,1610.850000,539.790000Z" transform="matrix(1 0 0 1 0.50000000000000 0.50000000000000)" fill="rgb(107,169,57)" stroke="none" stroke-width="1"/><path id="background-path156" d="M1591,497.930000C1591,497.930000,1576.880000,473.150000,1597.810000,458.530000C1597.770000,458.530000,1609.280000,476.650000,1591,497.930000Z" transform="matrix(1 0 0 1 0.50000000000000 0.50000000000000)" fill="rgb(128,163,66)" stroke="none" stroke-width="1"/><path id="background-path157" d="M1572.650000,396.540000C1572.650000,396.540000,1561.650000,433.070000,1590.960000,446.070000C1591,446.070000,1606.140000,410.400000,1572.650000,396.540000Z" transform="matrix(1 0 0 1 0.50000000000000 0.50000000000000)" fill="rgb(165,186,64)" stroke="none" stroke-width="1"/><path id="background-path158" d="M1545.440000,407C1545.440000,407,1533.440000,432,1555.380000,443.930000C1555.380000,443.900000,1571.600000,418.260000,1545.440000,407Z" transform="matrix(1 0 0 1 0.50000000000000 0.50000000000000)" fill="rgb(165,186,64)" stroke="none" stroke-width="1"/><path id="background-path159" d="M1521.370000,436.860000C1521.370000,436.860000,1524.510000,469.860000,1556.950000,464.490000C1557,464.490000,1553.810000,433.070000,1521.370000,436.860000Z" transform="matrix(1 0 0 1 0.50000000000000 0.50000000000000)" fill="rgb(124,161,66)" stroke="none" stroke-width="1"/><path id="background-path160" d="M1526.600000,476C1526.600000,476,1534.970000,506.160000,1573.690000,493.700000C1573.690000,493.740000,1560.090000,463.760000,1526.600000,476Z" transform="matrix(1 0 0 1 0.50000000000000 0.50000000000000)" fill="rgb(121,164,62)" stroke="none" stroke-width="1"/><path id="background-path161" d="M1507.770000,484.920000C1507.770000,484.920000,1506.200000,514.870000,1539.160000,516.500000C1539.160000,516.500000,1537.070000,486.400000,1507.770000,484.920000Z" transform="matrix(1 0 0 1 0.50000000000000 0.50000000000000)" fill="rgb(142,183,63)" stroke="none" stroke-width="1"/><path id="background-path162" d="M1504.100000,525.700000C1504.100000,525.700000,1511.020000,560.880000,1551.250000,548.170000C1551.250000,548.170000,1546,511.610000,1504.100000,525.700000Z" transform="matrix(1 0 0 1 0.50000000000000 0.50000000000000)" fill="rgb(142,183,63)" stroke="none" stroke-width="1"/><path id="background-path163" d="M1517.180000,580.420000C1517.180000,580.420000,1525.560000,543.040000,1564.800000,564.170000C1564.800000,564.170000,1551.720000,596.670000,1517.180000,580.420000Z" transform="matrix(1 0 0 1 0.50000000000000 0.50000000000000)" fill="rgb(140,182,73)" stroke="none" stroke-width="1"/><path id="background-path164" d="M1507.750000,608.870000C1507.750000,608.870000,1515.320000,582.050000,1542.150000,593.970000C1542.150000,594,1533.900000,621.070000,1507.750000,608.870000Z" transform="matrix(1 0 0 1 0.50000000000000 0.50000000000000)" fill="rgb(164,182,60)" stroke="none" stroke-width="1"/><path id="background-path165" d="M1515.090000,638.210000C1515.090000,638.210000,1509.860000,616,1546.490000,612.030000C1546.490000,612,1538.110000,646.700000,1515.090000,638.210000Z" transform="matrix(1 0 0 1 0.50000000000000 0.50000000000000)" fill="rgb(164,182,60)" stroke="none" stroke-width="1"/><path id="background-path166" d="M1546.490000,646C1546.490000,646,1540.730000,616.770000,1573.690000,608.900000C1573.690000,608.870000,1583.640000,635.680000,1546.490000,646Z" transform="matrix(1 0 0 1 0.50000000000000 0.50000000000000)" fill="rgb(124,159,68)" stroke="none" stroke-width="1"/><path id="background-path167" d="M1577.880000,639.550000C1577.880000,639.550000,1583.640000,596.690000,1619.220000,608.870000C1619.220000,608.870000,1617.650000,638.540000,1577.880000,639.550000Z" transform="matrix(1 0 0 1 0.50000000000000 0.50000000000000)" fill="rgb(138,185,76)" stroke="none" stroke-width="1"/><path id="background-path168" d="M1593.820000,682.270000C1593.820000,682.270000,1590.960000,640.150000,1622.880000,630.060000C1622.880000,630.060000,1635.400000,670.900000,1593.820000,682.270000Z" transform="matrix(1 0 0 1 0.50000000000000 0.50000000000000)" fill="rgb(114,161,64)" stroke="none" stroke-width="1"/></g></g><g id="background-layer-5"><g id="background-path169_to" transform="translate(0.500000,0.500000)"><path id="background-path169" d="M34.520000,237.450000L637,237.450000C637,237.450000,670.910000,175.530000,601.360000,163.790000C601.360000,163.790000,588.490000,102,525.680000,101.490000C525.680000,101.490000,481.110000,51.490000,446.680000,109.150000C446.680000,109.150000,424.540000,98.430000,407.680000,101.490000C407.680000,101.490000,395.930000,57.060000,358.150000,54.490000C320.370000,51.920000,299.920000,78,296.350000,99.450000C274.391378,88.168510,247.963728,90.138129,227.920000,104.550000C207.876272,118.961871,178.390000,34.600000,119.670000,109.660000C119.670000,109.660000,42.610000,64.210000,6.820000,161.740000C6.820000,161.740000,-4.670000,199.280000,34.520000,237.450000Z" transform="translate(0,0)" fill="rgb(255,255,255)" stroke="none" stroke-width="1"/></g><g id="background-path170_to" transform="translate(-3.518332,0.500000)"><path id="background-path170" d="M1888.480000,237.450000L1286.050000,237.450000C1286.050000,237.450000,1252.140000,175.530000,1321.690000,163.790000C1321.690000,163.790000,1334.560000,102,1397.370000,101.490000C1397.370000,101.490000,1441.940000,51.490000,1476.370000,109.150000C1476.370000,109.150000,1498.510000,98.430000,1515.370000,101.490000C1515.370000,101.490000,1527.110000,57.060000,1564.900000,54.490000C1602.690000,51.920000,1623.110000,77.980000,1626.690000,99.430000C1648.645531,88.150283,1675.069377,90.119907,1695.110000,104.530000C1715.150623,118.940093,1744.640000,34.580000,1803.370000,109.640000C1803.370000,109.640000,1880.430000,64.190000,1916.220000,161.720000C1916.180000,161.740000,1927.670000,199.280000,1888.480000,237.450000Z" transform="translate(0,0)" fill="rgb(255,255,255)" stroke="none" stroke-width="1"/></g></g></svg>