<svg id="garden2" xmlns="http://www.w3.org/2000/svg" xmlns:xlink="http://www.w3.org/1999/xlink" viewBox="0 0 1921.210000 265.080000" shape-rendering="geometricPrecision" text-rendering="geometricPrecision"><style><![CDATA[#garden2-layer-2_ts {animation: garden2-layer-2_ts__ts 3000ms infinite linear}@keyframes garden2-layer-2_ts__ts { 0% {transform: translate(960.649780px,206.029991px) skewX(0deg)} 50% {transform: translate(960.649780px,206.029991px) skewX(20deg)} 100% {transform: translate(960.649780px,206.029991px) skewX(0deg)} }]]></style><g id="garden2-layer-3"><rect id="garden2-rect1" width="1920" height="50.550000" rx="0" ry="0" transform="matrix(1 0 0 1 0 69.98999999999999)" fill="rgb(231,148,114)" stroke="none" stroke-width="1"/><polyline id="garden2-polyline1" points="1269.070000,225.430000 1269.070000,30.390000 1295.080000,4.730000 1318.060000,30.390000 1318.060000,225.430000 1269.070000,225.430000" fill="rgb(237,172,110)" stroke="none" stroke-width="1"/><polyline id="garden2-polyline2" points="0,225.430000 0,30.390000 26.010000,4.730000 48.990000,30.390000 48.990000,225.430000 0,225.430000" fill="rgb(237,172,110)" stroke="none" stroke-width="1"/><polyline id="garden2-polyline3" points="62.920000,225.430000 62.920000,30.390000 88.930000,4.730000 111.910000,30.390000 111.910000,225.430000 62.920000,225.430000" fill="rgb(237,172,110)" stroke="none" stroke-width="1"/><polyline id="garden2-polyline4" points="123.780000,225.430000 123.780000,30.390000 149.790000,4.730000 172.770000,30.390000 172.770000,225.430000 123.780000,225.430000" fill="rgb(237,172,110)" stroke="none" stroke-width="1"/><polyline id="garden2-polyline5" points="188.580000,225.430000 188.580000,30.390000 214.590000,4.730000 237.570000,30.390000 237.570000,225.430000 188.580000,225.430000" fill="rgb(237,172,110)" stroke="none" stroke-width="1"/><polyline id="garden2-polyline6" points="248.320000,225.430000 248.320000,30.390000 274.330000,4.730000 297.310000,30.390000 297.310000,225.430000 248.320000,225.430000" fill="rgb(237,172,110)" stroke="none" stroke-width="1"/><polyline id="garden2-polyline7" points="308.830000,225.430000 308.830000,30.390000 334.840000,4.730000 357.820000,30.390000 357.820000,225.430000 308.830000,225.430000" fill="rgb(237,172,110)" stroke="none" stroke-width="1"/><polyline id="garden2-polyline8" points="369.340000,225.430000 369.340000,30.390000 395.360000,4.730000 418.330000,30.390000 418.330000,225.430000 369.340000,225.430000" fill="rgb(237,172,110)" stroke="none" stroke-width="1"/><polyline id="garden2-polyline9" points="429.850000,225.430000 429.850000,30.390000 455.870000,4.730000 478.840000,30.390000 478.840000,225.430000 429.850000,225.430000" fill="rgb(237,172,110)" stroke="none" stroke-width="1"/><polyline id="garden2-polyline10" points="490.360000,225.430000 490.360000,30.390000 516.380000,4.730000 539.360000,30.390000 539.360000,225.430000 490.360000,225.430000" fill="rgb(237,172,110)" stroke="none" stroke-width="1"/><polyline id="garden2-polyline11" points="549.340000,225.430000 549.340000,30.390000 575.360000,4.730000 598.330000,30.390000 598.330000,225.430000 549.340000,225.430000" fill="rgb(237,172,110)" stroke="none" stroke-width="1"/><polyline id="garden2-polyline12" points="609.050000,225.430000 609.050000,30.390000 635.070000,4.730000 658.050000,30.390000 658.050000,225.430000 609.050000,225.430000" fill="rgb(237,172,110)" stroke="none" stroke-width="1"/><polyline id="garden2-polyline13" points="671.100000,225.430000 671.100000,30.390000 697.110000,4.730000 720.090000,30.390000 720.090000,225.430000 671.100000,225.430000" fill="rgb(237,172,110)" stroke="none" stroke-width="1"/><polyline id="garden2-polyline14" points="731.610000,225.430000 731.610000,30.390000 757.620000,4.730000 780.600000,30.390000 780.600000,225.430000 731.610000,225.430000" fill="rgb(237,172,110)" stroke="none" stroke-width="1"/><polyline id="garden2-polyline15" points="789.950000,225.430000 789.950000,30.390000 815.960000,4.730000 838.940000,30.390000 838.940000,225.430000 789.950000,225.430000" fill="rgb(237,172,110)" stroke="none" stroke-width="1"/><polyline id="garden2-polyline16" points="850.460000,225.430000 850.460000,30.390000 876.470000,4.730000 899.450000,30.390000 899.450000,225.430000 850.460000,225.430000" fill="rgb(237,172,110)" stroke="none" stroke-width="1"/><polyline id="garden2-polyline17" points="910.970000,225.430000 910.970000,30.390000 936.980000,4.730000 959.960000,30.390000 959.960000,225.430000 910.970000,225.430000" fill="rgb(237,172,110)" stroke="none" stroke-width="1"/><polyline id="garden2-polyline18" points="969.600000,225.430000 969.600000,30.390000 995.610000,4.730000 1018.590000,30.390000 1018.590000,225.430000 969.600000,225.430000" fill="rgb(237,172,110)" stroke="none" stroke-width="1"/><polyline id="garden2-polyline19" points="1032.400000,225.430000 1032.400000,30.390000 1058.420000,4.730000 1081.400000,30.390000 1081.400000,225.430000 1032.400000,225.430000" fill="rgb(237,172,110)" stroke="none" stroke-width="1"/><polyline id="garden2-polyline20" points="1092.150000,225.430000 1092.150000,30.390000 1118.160000,4.730000 1141.140000,30.390000 1141.140000,225.430000 1092.150000,225.430000" fill="rgb(237,172,110)" stroke="none" stroke-width="1"/><polyline id="garden2-polyline21" points="1152.660000,225.430000 1152.660000,30.390000 1178.670000,4.730000 1201.650000,30.390000 1201.650000,225.430000 1152.660000,225.430000" fill="rgb(237,172,110)" stroke="none" stroke-width="1"/><polyline id="garden2-polyline22" points="1210.120000,225.430000 1210.120000,30.390000 1236.130000,4.730000 1259.110000,30.390000 1259.110000,225.430000 1210.120000,225.430000" fill="rgb(237,172,110)" stroke="none" stroke-width="1"/><polyline id="garden2-polyline23" points="1752.420000,220.700000 1752.420000,25.660000 1778.440000,0 1801.420000,25.660000 1801.420000,220.700000 1752.420000,220.700000" fill="rgb(237,172,110)" stroke="none" stroke-width="1"/><polyline id="garden2-polyline24" points="1333.810000,220.700000 1333.810000,25.660000 1359.820000,0 1382.800000,25.660000 1382.800000,220.700000 1333.810000,220.700000" fill="rgb(237,172,110)" stroke="none" stroke-width="1"/><polyline id="garden2-polyline25" points="1394.320000,220.700000 1394.320000,25.660000 1420.330000,0 1443.310000,25.660000 1443.310000,220.700000 1394.320000,220.700000" fill="rgb(237,172,110)" stroke="none" stroke-width="1"/><polyline id="garden2-polyline26" points="1452.950000,220.700000 1452.950000,25.660000 1478.960000,0 1501.940000,25.660000 1501.940000,220.700000 1452.950000,220.700000" fill="rgb(237,172,110)" stroke="none" stroke-width="1"/><polyline id="garden2-polyline27" points="1515.760000,220.700000 1515.760000,25.660000 1541.770000,0 1564.750000,25.660000 1564.750000,220.700000 1515.760000,220.700000" fill="rgb(237,172,110)" stroke="none" stroke-width="1"/><polyline id="garden2-polyline28" points="1575.500000,220.700000 1575.500000,25.660000 1601.520000,0 1624.490000,25.660000 1624.490000,220.700000 1575.500000,220.700000" fill="rgb(237,172,110)" stroke="none" stroke-width="1"/><polyline id="garden2-polyline29" points="1636.010000,220.700000 1636.010000,25.660000 1662.030000,0 1685.010000,25.660000 1685.010000,220.700000 1636.010000,220.700000" fill="rgb(237,172,110)" stroke="none" stroke-width="1"/><polyline id="garden2-polyline30" points="1693.470000,220.700000 1693.470000,25.660000 1719.490000,0 1742.470000,25.660000 1742.470000,220.700000 1693.470000,220.700000" fill="rgb(237,172,110)" stroke="none" stroke-width="1"/><polyline id="garden2-polyline31" points="1871.010000,223.740000 1871.010000,28.690000 1897.020000,3.030000 1920,28.690000 1920,223.740000 1871.010000,223.740000" fill="rgb(237,172,110)" stroke="none" stroke-width="1"/><polyline id="garden2-polyline32" points="1812.060000,223.740000 1812.060000,28.690000 1838.070000,3.030000 1861.050000,28.690000 1861.050000,223.740000 1812.060000,223.740000" fill="rgb(237,172,110)" stroke="none" stroke-width="1"/></g><g id="garden2-layer-1"><rect id="garden2-rect2" width="1920" height="46" rx="0" ry="0" transform="matrix(1 0 0 1 0 219.08000000000001)" fill="rgb(178,71,71)" stroke="none" stroke-width="1"/><rect id="garden2-rect3" width="1920" height="23" rx="0" ry="0" transform="matrix(1 0 0 1 0 219.08000000000001)" fill="rgb(165,231,155)" stroke="none" stroke-width="1"/></g><g id="garden2-layer-2_ts" transform="translate(960.649780,206.029991) scale(1,1)"><g id="garden2-layer-2" transform="translate(-960.649780,-206.029991)"><path id="garden2-path1" d="M0,274.710000L0,254.450000C0,254.450000,31.460000,252.660000,6.150000,236.300000L23.830000,242.910000C23.830000,242.910000,27.040000,234.210000,20.610000,220.630000L38.690000,244.310000C38.690000,244.310000,45.120000,223.070000,32.690000,217.850000C32.690000,217.850000,43.130000,214.020000,51.170000,240.130000C51.170000,240.130000,53.980000,229.680000,61.170000,223.070000L61.170000,244.660000C61.170000,244.660000,63.980000,244.310000,81.260000,231.420000C81.260000,231.420000,66.390000,248.590000,73.620000,259.680000C80.850000,270.770000,71.620000,259.680000,71.620000,259.680000C77.060432,255.804723,83.458795,253.494395,90.120000,253L76.860000,252C76.860000,252,79.270000,246,102.170000,246.210000C102.170000,246.210000,104.330000,240.210000,89.710000,238.070000C89.710000,238.070000,102.970000,234.850000,124.710000,246.210000C124.710000,246.210000,129.130000,240.860000,101.410000,225.540000C101.410000,225.540000,107.410000,221.360000,137.160000,233.200000C137.160000,233.200000,137.560000,226.930000,125.910000,209.870000C125.910000,209.870000,140.250000,212.220000,156.740000,242.300000C157.040000,242.860000,157.350000,243.420000,157.650000,243.990000C157.650000,243.990000,160.460000,227.280000,153.230000,222.050000C153.230000,222.050000,163.280000,221.360000,173.320000,244.690000C173.320000,244.690000,178.940000,238.770000,170.510000,218.570000C170.510000,218.570000,179.350000,219.970000,186.980000,237.030000C186.980000,237.030000,190.600000,226.930000,194.210000,222.750000L194.210000,239.110000C194.210000,239.110000,197.830000,244.110000,203.050000,242.300000C208.270000,240.490000,203.050000,240.860000,203.050000,240.860000L202.250000,229.370000C202.250000,229.370000,209.080000,232.260000,211.490000,242.300000C211.490000,242.300000,223.140000,242.600000,211.490000,231.450000C211.490000,231.450000,217.920000,232.150000,227.160000,237.370000C227.160000,237.370000,233.990000,218.220000,242.820000,217.530000C242.820000,217.530000,237.200000,232.260000,241.220000,242.300000C241.220000,242.300000,248.450000,223.100000,258.090000,220.660000L258.090000,236.300000L261.710000,235.950000L264.920000,227.950000C264.920000,227.950000,267.330000,229.350000,270.550000,239.440000L270.550000,219.590000C270.550000,219.590000,278.180000,217.590000,287.420000,242.270000C287.420000,242.270000,291.840000,241.170000,287.420000,216.450000C287.420000,216.450000,294.250000,220.280000,299.870000,236.650000C299.870000,236.650000,308.310000,217.850000,317.150000,216.110000C317.150000,216.110000,311.150000,225.970000,313.530000,242.270000C313.530000,242.270000,322.370000,217.850000,333.620000,216.450000C333.620000,216.450000,320.770000,235.250000,335.230000,240.450000C335.230000,240.450000,354.910000,241.740000,335.230000,207.150000C335.230000,207.150000,351.300000,219.560000,361.740000,238.360000C361.740000,238.360000,370.990000,228.610000,358.130000,217.120000C358.130000,217.120000,370.180000,220.490000,379.020000,240.910000C379.020000,240.910000,379.820000,220.600000,375.400000,215.730000C375.400000,215.730000,386.250000,219.210000,391.070000,234.880000C391.070000,234.880000,397.900000,219.560000,407.140000,215.730000C407.140000,215.730000,401.520000,231.050000,405.140000,242.540000C405.140000,242.540000,411.140000,223.390000,422.020000,217.820000L422.020000,240.910000L426.840000,227.560000C426.840000,227.560000,431.660000,234.880000,432.060000,236.620000C432.460000,238.360000,436.880000,235.920000,434.060000,220.950000C434.060000,220.950000,444.910000,222.690000,450.130000,243.230000C450.130000,243.230000,456.560000,239.750000,450.130000,219.560000L456.960000,223.040000C456.960000,223.040000,462.960000,235.220000,463.390000,237.310000L479.860000,231.390000C479.860000,231.390000,473.430000,239.290000,478.250000,240.910000L490.310000,228.610000L490.310000,240.910000C490.310000,240.910000,494.310000,245.320000,497.940000,238.010000L497.940000,223.010000L505.940000,237.630000C505.940000,237.630000,512.360000,219.530000,521.600000,217.790000L519.190000,243.200000C519.190000,243.200000,524.820000,231.020000,538.880000,219.530000C538.880000,219.530000,530.040000,231.360000,536.070000,242.530000C536.070000,242.530000,548.520000,216.760000,566.200000,209.100000L555.350000,233.100000C555.350000,233.100000,571.820000,225.440000,590.300000,224.740000C590.300000,224.740000,566.200000,239.360000,567.400000,245.630000C567.400000,245.630000,587.090000,236.230000,601.150000,237.630000C601.150000,237.630000,587.490000,244.250000,588.700000,246.340000C588.700000,246.340000,606.370000,245.990000,614.410000,252.250000L602.410000,252.950000C602.410000,252.950000,612.410000,255.740000,618.080000,257.830000C623.750000,259.920000,622.080000,238.680000,610.840000,231.710000C599.600000,224.740000,631.330000,246.340000,631.330000,246.340000L631.330000,224.810000C631.330000,224.810000,637.760000,227.250000,640.570000,239.080000C640.570000,239.080000,647.810000,219.240000,659.060000,216.450000C652.030008,223.793179,649.963082,234.577994,653.780000,244L670.250000,221.370000L670.250000,243.300000C670.250000,243.300000,674.670000,239.120000,685.120000,236.690000C685.120000,236.690000,670.660000,242.950000,682.310000,257.930000L685.120000,274.750000Z" transform="matrix(1 0 0 1 0 -34.92000000000000)" fill="rgb(165,231,155)" stroke="none" stroke-width="1"/><path id="garden2-path2" d="M687.510000,274.710000L687.510000,254.450000C687.510000,254.450000,718.970000,252.660000,693.660000,236.300000L711.330000,242.910000C711.330000,242.910000,714.550000,234.210000,708.120000,220.630000L726.200000,244.310000C726.200000,244.310000,732.630000,223.070000,720.200000,217.850000C720.200000,217.850000,730.650000,214.020000,738.680000,240.130000C738.680000,240.130000,741.500000,229.680000,748.730000,223.070000L748.730000,244.660000C748.730000,244.660000,751.540000,244.310000,768.810000,231.420000C768.810000,231.420000,753.950000,248.590000,761.180000,259.680000C768.410000,270.770000,759.180000,259.680000,759.180000,259.680000C764.604501,255.817239,770.980088,253.507644,777.620000,253L764.370000,252C764.370000,252,766.780000,246,789.680000,246.210000C789.680000,246.210000,791.830000,240.210000,777.220000,238.070000C777.220000,238.070000,790.480000,234.850000,812.170000,246.210000C812.170000,246.210000,816.590000,240.860000,788.870000,225.540000C788.870000,225.540000,794.870000,221.360000,824.630000,233.200000C824.630000,233.200000,825.030000,226.930000,813.380000,209.870000C813.380000,209.870000,827.710000,212.220000,844.210000,242.300000L845.120000,243.990000C845.120000,243.990000,847.930000,227.280000,840.700000,222.050000C840.700000,222.050000,850.700000,221.360000,860.790000,244.690000C860.790000,244.690000,866.410000,238.770000,857.980000,218.570000C857.980000,218.570000,866.810000,219.970000,874.450000,237.030000C874.450000,237.030000,878.060000,226.930000,881.680000,222.750000L881.680000,239.110000C881.680000,239.110000,885.290000,244.110000,890.520000,242.300000C895.750000,240.490000,890.520000,240.860000,890.520000,240.860000L889.710000,229.370000C889.710000,229.370000,896.540000,232.260000,898.950000,242.300000C898.950000,242.300000,910.610000,242.600000,898.950000,231.450000C898.950000,231.450000,905.380000,232.150000,914.620000,237.370000C914.620000,237.370000,921.450000,218.220000,930.290000,217.530000C930.290000,217.530000,924.670000,232.260000,928.680000,242.300000C928.680000,242.300000,935.920000,223.100000,945.560000,220.660000L945.560000,236.300000L949.170000,235.950000L952.390000,227.950000C952.390000,227.950000,954.800000,229.350000,958.010000,239.440000L958.010000,219.590000C958.010000,219.590000,965.650000,217.590000,974.890000,242.270000C974.890000,242.270000,979.310000,241.170000,974.890000,216.450000C974.890000,216.450000,981.720000,220.280000,987.340000,236.650000C987.340000,236.650000,995.780000,217.850000,1004.620000,216.110000C1004.620000,216.110000,998.620000,225.970000,1001,242.270000C1001,242.270000,1009.840000,217.850000,1021.090000,216.450000C1021.090000,216.450000,1008.230000,235.250000,1022.700000,240.450000C1022.700000,240.450000,1042.380000,241.740000,1022.700000,207.150000C1022.700000,207.150000,1038.770000,219.560000,1049.210000,238.360000C1049.210000,238.360000,1058.450000,228.610000,1045.600000,217.120000C1045.600000,217.120000,1057.650000,220.490000,1066.490000,240.910000C1066.490000,240.910000,1067.290000,220.600000,1062.870000,215.730000C1062.870000,215.730000,1073.720000,219.210000,1078.540000,234.880000C1078.540000,234.880000,1085.370000,219.560000,1094.610000,215.730000C1094.610000,215.730000,1088.990000,231.050000,1092.610000,242.540000C1092.610000,242.540000,1098.610000,223.390000,1109.490000,217.820000L1109.490000,240.910000L1114.310000,227.560000C1114.310000,227.560000,1119.130000,234.880000,1119.530000,236.620000C1119.930000,238.360000,1124.350000,235.920000,1121.530000,220.950000C1121.530000,220.950000,1132.380000,222.690000,1137.600000,243.230000C1137.600000,243.230000,1144.030000,239.750000,1137.600000,219.560000L1144.430000,223.040000C1144.430000,223.040000,1150.430000,235.220000,1150.860000,237.310000L1167.330000,231.390000C1167.330000,231.390000,1160.900000,239.290000,1165.720000,240.910000L1177.720000,228.610000L1177.720000,240.910000C1177.720000,240.910000,1181.720000,245.320000,1185.360000,238.010000L1185.360000,223.010000L1193.360000,237.630000C1193.360000,237.630000,1199.790000,219.530000,1209.030000,217.790000L1206.620000,243.200000C1206.620000,243.200000,1212.250000,231.020000,1226.310000,219.530000C1226.310000,219.530000,1217.470000,231.360000,1223.490000,242.530000C1223.490000,242.530000,1235.950000,216.760000,1253.630000,209.100000L1242.780000,233.100000C1242.780000,233.100000,1259.250000,225.440000,1277.780000,224.740000C1277.780000,224.740000,1253.680000,239.360000,1254.880000,245.630000C1254.880000,245.630000,1274.570000,236.230000,1288.630000,237.630000C1288.630000,237.630000,1274.970000,244.250000,1276.170000,246.340000C1276.170000,246.340000,1293.850000,245.990000,1301.890000,252.250000L1289.830000,252.950000C1289.830000,252.950000,1299.880000,255.740000,1305.500000,257.830000C1311.120000,259.920000,1309.500000,238.680000,1298.270000,231.710000C1287.040000,224.740000,1318.760000,246.340000,1318.760000,246.340000L1318.760000,224.810000C1318.760000,224.810000,1325.190000,227.250000,1328,239.080000C1328,239.080000,1335.230000,219.240000,1346.480000,216.450000C1339.489452,223.799655,1337.447592,234.560493,1341.260000,243.960000L1357.730000,221.330000L1357.730000,243.260000C1357.730000,243.260000,1362.150000,239.080000,1372.600000,236.650000C1372.600000,236.650000,1358.130000,242.910000,1369.780000,257.890000L1372.600000,274.710000Z" transform="matrix(1 0 0 1 0 -34.92000000000000)" fill="rgb(165,231,155)" stroke="none" stroke-width="1"/><path id="garden2-path3" d="M1236.090000,274.710000L1236.090000,254.450000C1236.090000,254.450000,1267.550000,252.660000,1242.240000,236.300000L1259.920000,242.910000C1259.920000,242.910000,1263.130000,234.210000,1256.700000,220.630000L1274.780000,244.310000C1274.780000,244.310000,1281.210000,223.070000,1268.780000,217.850000C1268.780000,217.850000,1279.220000,214.020000,1287.260000,240.130000C1287.260000,240.130000,1290.070000,229.680000,1297.260000,223.070000L1297.260000,244.660000C1297.260000,244.660000,1300.070000,244.310000,1317.350000,231.420000C1317.350000,231.420000,1302.480000,248.590000,1309.720000,259.680000C1316.960000,270.770000,1307.720000,259.680000,1307.720000,259.680000C1313.155790,255.811703,1319.546694,253.505029,1326.200000,253.010000L1313,252C1313,252,1315.410000,246,1338.310000,246.210000C1338.310000,246.210000,1340.470000,240.210000,1325.860000,238.070000C1325.860000,238.070000,1339.110000,234.850000,1360.860000,246.210000C1360.860000,246.210000,1365.280000,240.860000,1337.560000,225.540000C1337.560000,225.540000,1343.560000,221.360000,1373.310000,233.200000C1373.310000,233.200000,1373.710000,226.930000,1362.060000,209.870000C1362.060000,209.870000,1376.400000,212.220000,1392.890000,242.300000C1393.190000,242.860000,1393.500000,243.420000,1393.800000,243.990000C1393.800000,243.990000,1396.610000,227.280000,1389.380000,222.050000C1389.380000,222.050000,1399.380000,221.360000,1409.470000,244.690000C1409.470000,244.690000,1415.100000,238.770000,1406.660000,218.570000C1406.660000,218.570000,1415.500000,219.970000,1423.130000,237.030000C1423.130000,237.030000,1426.750000,226.930000,1430.360000,222.750000L1430.360000,239.110000C1430.360000,239.110000,1433.980000,244.110000,1439.200000,242.300000C1444.420000,240.490000,1439.200000,240.860000,1439.200000,240.860000L1438.400000,229.370000C1438.400000,229.370000,1445.230000,232.260000,1447.640000,242.300000C1447.640000,242.300000,1459.290000,242.600000,1447.640000,231.450000C1447.640000,231.450000,1454.070000,232.150000,1463.310000,237.370000C1463.310000,237.370000,1470.140000,218.220000,1478.980000,217.530000C1478.980000,217.530000,1473.350000,232.260000,1477.370000,242.300000C1477.370000,242.300000,1484.600000,223.100000,1494.240000,220.660000L1494.240000,236.300000L1497.860000,235.950000L1501.070000,227.950000C1501.070000,227.950000,1503.480000,229.350000,1506.700000,239.440000L1506.700000,219.590000C1506.700000,219.590000,1514.330000,217.590000,1523.570000,242.270000C1523.570000,242.270000,1527.990000,241.170000,1523.570000,216.450000C1523.570000,216.450000,1530.400000,220.280000,1536.020000,236.650000C1536.020000,236.650000,1544.460000,217.850000,1553.300000,216.110000C1553.300000,216.110000,1547.300000,225.970000,1549.680000,242.270000C1549.680000,242.270000,1558.520000,217.850000,1569.770000,216.450000C1569.770000,216.450000,1556.920000,235.250000,1571.380000,240.450000C1571.380000,240.450000,1591.070000,241.740000,1571.380000,207.150000C1571.380000,207.150000,1587.450000,219.560000,1597.900000,238.360000C1597.900000,238.360000,1607.140000,228.610000,1594.280000,217.120000C1594.280000,217.120000,1606.280000,220.490000,1615.170000,240.910000C1615.170000,240.910000,1615.970000,220.600000,1611.560000,215.730000C1611.560000,215.730000,1622.400000,219.210000,1627.220000,234.880000C1627.220000,234.880000,1634.050000,219.560000,1643.290000,215.730000C1643.290000,215.730000,1637.670000,231.050000,1641.290000,242.540000C1641.290000,242.540000,1647.290000,223.390000,1658.160000,217.820000L1658.160000,240.910000L1662.980000,227.560000C1662.980000,227.560000,1667.800000,234.880000,1668.200000,236.620000C1668.600000,238.360000,1673.020000,235.920000,1670.200000,220.950000C1670.200000,220.950000,1681.050000,222.690000,1686.270000,243.230000C1686.270000,243.230000,1692.700000,239.750000,1686.270000,219.560000L1693.100000,223.040000C1693.100000,223.040000,1699.100000,235.220000,1699.530000,237.310000L1716,231.390000C1716,231.390000,1709.570000,239.290000,1714.400000,240.910000L1726.400000,228.610000L1726.400000,240.910000C1726.400000,240.910000,1730.400000,245.320000,1734.030000,238.010000L1734.030000,223.010000L1742.030000,237.630000C1742.030000,237.630000,1748.450000,219.530000,1757.690000,217.790000L1755.280000,243.200000C1755.280000,243.200000,1760.910000,231.020000,1774.970000,219.530000C1774.970000,219.530000,1766.130000,231.360000,1772.160000,242.530000C1772.160000,242.530000,1784.610000,216.760000,1802.290000,209.100000L1791.440000,233.100000C1791.440000,233.100000,1807.910000,225.440000,1826.440000,224.740000C1826.440000,224.740000,1802.330000,239.360000,1803.540000,245.630000C1803.540000,245.630000,1823.220000,236.230000,1837.280000,237.630000C1837.280000,237.630000,1823.620000,244.250000,1824.830000,246.340000C1824.830000,246.340000,1842.510000,245.990000,1850.540000,252.250000L1838.540000,252.950000C1838.540000,252.950000,1848.540000,255.740000,1854.210000,257.830000C1859.880000,259.920000,1858.210000,238.680000,1846.980000,231.710000C1835.750000,224.740000,1867.460000,246.340000,1867.460000,246.340000L1867.460000,224.810000C1867.460000,224.810000,1873.890000,227.250000,1876.710000,239.080000C1876.710000,239.080000,1883.940000,219.240000,1895.190000,216.450000C1888.193653,223.796277,1886.147554,234.558834,1889.960000,243.960000L1906.440000,221.330000L1906.440000,243.260000C1906.440000,243.260000,1910.850000,239.080000,1921.300000,236.650000C1921.300000,236.650000,1906.840000,242.910000,1918.490000,257.890000L1921.300000,274.710000Z" transform="matrix(1 0 0 1 0 -34.92000000000000)" fill="rgb(165,231,155)" stroke="none" stroke-width="1"/></g></g><g id="garden2-layer-4"><polygon id="garden2-polygon1" points="75.360000,219.790000 120.560000,219.790000 133.580000,185.070000 58.770000,182.520000 75.360000,219.790000" fill="rgb(220,142,54)" stroke="none" stroke-width="1"/><polygon id="garden2-polygon2" points="48.460000,166.180000 52.990000,179.970000 141.840000,182.520000 146.950000,167.460000 48.460000,166.180000" fill="rgb(220,142,54)" stroke="none" stroke-width="1"/><path id="garden2-path4" d="M94.770000,196.690000C94.770000,196.690000,74.130000,182.770000,77.880000,155.880000C77.880000,155.880000,103.680000,166.060000,94.770000,196.690000Z" transform="matrix(1 0 0 1 0 -34.92000000000000)" fill="rgb(109,165,111)" stroke="none" stroke-width="1"/><path id="garden2-path5" d="M101.330000,195.280000C101.330000,195.280000,87.570000,159.790000,119,138.680000C119,138.680000,127.600000,162.600000,101.330000,195.280000Z" transform="matrix(1 0 0 1 0 -34.92000000000000)" fill="rgb(109,165,111)" stroke="none" stroke-width="1"/><path id="garden2-path6" d="M106.800000,195.900000C106.800000,195.900000,113.800000,169.010000,133.850000,173.080000C133.850000,173.080000,127.440000,193.090000,106.800000,195.900000Z" transform="matrix(1 0 0 1 0 -34.92000000000000)" fill="rgb(109,165,111)" stroke="none" stroke-width="1"/><path id="garden2-path7" d="M120.350000,195.900000C120.350000,195.900000,125.580000,185.270000,141.200000,186.290000C141.200000,186.290000,138.550000,200.900000,120.350000,195.900000Z" transform="matrix(1 0 0 1 0 -34.92000000000000)" fill="rgb(109,165,111)" stroke="none" stroke-width="1"/><path id="garden2-path8" d="M74.400000,195.900000C74.400000,195.900000,64.390000,200,52,189.650000C52,189.650000,62.830000,178.860000,74.400000,195.900000Z" transform="matrix(1 0 0 1 0 -34.92000000000000)" fill="rgb(109,165,111)" stroke="none" stroke-width="1"/><path id="garden2-path9" d="M87.420000,196.690000C87.420000,196.690000,69.050000,194,63.220000,176.050000C63.220000,176.050000,80.070000,170.900000,87.420000,196.690000Z" transform="matrix(1 0 0 1 0 -34.92000000000000)" fill="rgb(109,165,111)" stroke="none" stroke-width="1"/><path id="garden2-path10" d="M93.510000,163.230000L95.230000,160.880000L93.510000,159.160000C93.510000,159.160000,95.230000,145.560000,89.450000,138.050000C89.450000,138.050000,69.750000,117.880000,56.770000,138.050000C56.770000,138.050000,54.890000,149.620000,64.590000,150.400000C64.590000,150.400000,71.490000,142.470000,75.320000,149.470000C75.320000,149.470000,77.610000,147.900000,75.320000,144.930000C75.320000,144.930000,73.110000,141.180000,62.440000,147.280000C62.440000,147.280000,57.710000,145.400000,58.960000,137.740000C58.960000,137.740000,64.120000,125.070000,80.380000,132.890000C80.380000,132.890000,92.260000,133.200000,93.510000,163.230000Z" transform="matrix(1 0 0 1 0 -34.92000000000000)" fill="rgb(109,165,111)" stroke="none" stroke-width="1"/><circle id="garden2-circle1" r="4.960000" transform="matrix(1 0 0 1 98.64000000000000 108.72000000000000)" fill="rgb(152,212,227)" stroke="none" stroke-width="1"/><circle id="garden2-circle2" r="4.020000" transform="matrix(1 0 0 1 83.18000000000001 114.05000000000000)" fill="rgb(152,212,227)" stroke="none" stroke-width="1"/><circle id="garden2-circle3" r="4.610000" transform="matrix(1 0 0 1 80.54000000000001 88.12000000000000)" fill="rgb(152,212,227)" stroke="none" stroke-width="1"/><circle id="garden2-circle4" r="3.830000" transform="matrix(1 0 0 1 69.20000000000000 87.26000000000001)" fill="rgb(152,212,227)" stroke="none" stroke-width="1"/><circle id="garden2-circle5" r="3.670000" transform="matrix(1 0 0 1 59.55000000000000 90.93000000000001)" fill="rgb(152,212,227)" stroke="none" stroke-width="1"/><circle id="garden2-circle6" r="3.030000" transform="matrix(1 0 0 1 52.85000000000000 97.64000000000000)" fill="rgb(152,212,227)" stroke="none" stroke-width="1"/><circle id="garden2-circle7" r="2.110000" transform="matrix(1 0 0 1 50.74000000000000 105.39000000000000)" fill="rgb(152,212,227)" stroke="none" stroke-width="1"/><circle id="garden2-circle8" r="1.520000" transform="matrix(1 0 0 1 50.74000000000000 111.68000000000001)" fill="rgb(152,212,227)" stroke="none" stroke-width="1"/><circle id="garden2-circle9" r="1.520000" transform="matrix(1 0 0 1 52.04000000000000 118.45000000000000)" fill="rgb(152,212,227)" stroke="none" stroke-width="1"/><polygon id="garden2-polygon3" points="1262.230000,219.980000 1307.420000,219.980000 1320.440000,185.260000 1245.630000,182.700000 1262.230000,219.980000" fill="rgb(220,142,54)" stroke="none" stroke-width="1"/><polygon id="garden2-polygon4" points="1235.320000,166.360000 1239.850000,180.150000 1328.700000,182.700000 1333.810000,167.640000 1235.320000,166.360000" fill="rgb(220,142,54)" stroke="none" stroke-width="1"/><path id="garden2-path11" d="M1281.630000,196.880000C1281.630000,196.880000,1261,183,1264.740000,156.060000C1264.740000,156.060000,1290.540000,166.240000,1281.630000,196.880000Z" transform="matrix(1 0 0 1 0 -34.92000000000000)" fill="rgb(109,165,111)" stroke="none" stroke-width="1"/><path id="garden2-path12" d="M1288.190000,195.460000C1288.190000,195.460000,1274.440000,159.970000,1305.860000,138.860000C1305.860000,138.860000,1314.460000,162.780000,1288.190000,195.460000Z" transform="matrix(1 0 0 1 0 -34.92000000000000)" fill="rgb(109,165,111)" stroke="none" stroke-width="1"/><path id="garden2-path13" d="M1293.670000,196.090000C1293.670000,196.090000,1300.670000,169.190000,1320.670000,173.260000C1320.720000,173.260000,1314.310000,193.270000,1293.670000,196.090000Z" transform="matrix(1 0 0 1 0 -34.92000000000000)" fill="rgb(109,165,111)" stroke="none" stroke-width="1"/><path id="garden2-path14" d="M1307.210000,196.090000C1307.210000,196.090000,1312.440000,185.450000,1328.070000,186.480000C1328.070000,186.480000,1325.410000,201.090000,1307.210000,196.090000Z" transform="matrix(1 0 0 1 0 -34.92000000000000)" fill="rgb(109,165,111)" stroke="none" stroke-width="1"/><path id="garden2-path15" d="M1261.260000,196.090000C1261.260000,196.090000,1251.260000,200.150000,1238.910000,189.830000C1238.910000,189.830000,1249.690000,179.050000,1261.260000,196.090000Z" transform="matrix(1 0 0 1 0 -34.92000000000000)" fill="rgb(109,165,111)" stroke="none" stroke-width="1"/><path id="garden2-path16" d="M1274.280000,196.880000C1274.280000,196.880000,1255.910000,194.210000,1250.080000,176.230000C1250.080000,176.230000,1266.930000,171.090000,1274.280000,196.880000Z" transform="matrix(1 0 0 1 0 -34.92000000000000)" fill="rgb(109,165,111)" stroke="none" stroke-width="1"/><path id="garden2-path17" d="M1280.380000,163.410000L1282.100000,161.060000L1280.380000,159.340000C1280.380000,159.340000,1282.100000,145.740000,1276.310000,138.240000C1276.310000,138.240000,1256.610000,118.070000,1243.630000,138.240000C1243.630000,138.240000,1241.760000,149.810000,1251.450000,150.590000C1251.450000,150.590000,1258.350000,142.650000,1262.180000,149.650000C1262.180000,149.650000,1264.470000,148.090000,1262.180000,145.120000C1262.180000,145.120000,1259.980000,141.360000,1249.300000,147.460000C1249.300000,147.460000,1244.570000,145.580000,1245.820000,137.920000C1245.820000,137.920000,1250.980000,125.260000,1267.240000,133.080000C1267.240000,133.080000,1279.130000,133.390000,1280.380000,163.410000Z" transform="matrix(1 0 0 1 0 -34.92000000000000)" fill="rgb(109,165,111)" stroke="none" stroke-width="1"/><circle id="garden2-circle10" r="4.960000" transform="matrix(1 0 0 1 1285.50000000000000 108.90000000000001)" fill="rgb(152,212,227)" stroke="none" stroke-width="1"/><circle id="garden2-circle11" r="4.020000" transform="matrix(1 0 0 1 1270.03999999999996 114.23000000000000)" fill="rgb(152,212,227)" stroke="none" stroke-width="1"/><circle id="garden2-circle12" r="4.610000" transform="matrix(1 0 0 1 1267.40000000000009 88.31000000000000)" fill="rgb(152,212,227)" stroke="none" stroke-width="1"/><circle id="garden2-circle13" r="3.830000" transform="matrix(1 0 0 1 1256.05999999999995 87.44000000000000)" fill="rgb(152,212,227)" stroke="none" stroke-width="1"/><circle id="garden2-circle14" r="3.670000" transform="matrix(1 0 0 1 1246.42000000000007 91.12000000000000)" fill="rgb(152,212,227)" stroke="none" stroke-width="1"/><circle id="garden2-circle15" r="3.030000" transform="matrix(1 0 0 1 1239.71000000000004 97.81999999999999)" fill="rgb(152,212,227)" stroke="none" stroke-width="1"/><circle id="garden2-circle16" r="2.110000" transform="matrix(1 0 0 1 1237.60999999999990 105.58000000000000)" fill="rgb(152,212,227)" stroke="none" stroke-width="1"/><circle id="garden2-circle17" r="1.520000" transform="matrix(1 0 0 1 1237.60999999999990 111.87000000000000)" fill="rgb(152,212,227)" stroke="none" stroke-width="1"/><circle id="garden2-circle18" r="1.520000" transform="matrix(1 0 0 1 1238.91000000000008 118.64000000000000)" fill="rgb(152,212,227)" stroke="none" stroke-width="1"/></g><g id="garden2-layer-6"><polygon id="garden2-polygon5" points="241.960000,219.130000 265.190000,219.130000 272.340000,162.450000 232.250000,159.420000 241.960000,219.130000" fill="rgb(237,113,60)" stroke="none" stroke-width="1"/><polygon id="garden2-polygon6" points="228.680000,149.480000 228.680000,157.480000 276.680000,159.420000 275.150000,148.830000 228.680000,149.480000" fill="rgb(237,113,60)" stroke="none" stroke-width="1"/><path id="garden2-path18" d="M255.580000,180.870000C255.580000,180.870000,244.380000,161.720000,269.940000,144.580000C269.940000,144.580000,274.730000,167.080000,255.580000,180.870000Z" transform="matrix(1 0 0 1 0 -34.92000000000000)" fill="rgb(109,164,114)" stroke="none" stroke-width="1"/><path id="garden2-path19" d="M250.510000,181.250000L252.610000,181.250000C252.610000,181.250000,243.420000,141.520000,261.140000,99.680000L255.680000,98.240000C255.680000,98.240000,244.760000,149.370000,250.510000,181.250000Z" transform="matrix(1 0 0 1 0 -34.92000000000000)" fill="rgb(109,164,114)" stroke="none" stroke-width="1"/><path id="garden2-path20" d="M245.340000,159.710000C245.340000,159.710000,255.100000,134.180000,236.720000,122.940000C236.720000,122.940000,233.780000,150.650000,245.340000,159.710000Z" transform="matrix(1 0 0 1 0 -34.92000000000000)" fill="rgb(109,164,114)" stroke="none" stroke-width="1"/><path id="garden2-path21" d="M216.420000,134.620000L219.490000,131.940000C219.490000,131.940000,242.940000,153.480000,249.980000,177.940000L248.840000,179.040000C248.840000,179.040000,240.550000,149.940000,216.420000,134.620000Z" transform="matrix(1 0 0 1 0 -34.92000000000000)" fill="rgb(109,164,114)" stroke="none" stroke-width="1"/><path id="garden2-path22" d="M208.190000,147.260000C208.190000,147.260000,220.250000,173.500000,246.680000,182.110000C246.680000,182.110000,242.850000,148.790000,208.190000,147.260000Z" transform="matrix(1 0 0 1 0 -34.92000000000000)" fill="rgb(109,164,114)" stroke="none" stroke-width="1"/><path id="garden2-path23" d="M259.130000,96.130000C259.130000,96.130000,275.210000,67.410000,287.080000,82.540000C287.080000,82.540000,307.380000,96.520000,259.130000,96.130000Z" transform="matrix(1 0 0 1 0 -34.92000000000000)" fill="rgb(232,89,108)" stroke="none" stroke-width="1"/><path id="garden2-path24" d="M258.180000,96.140000C258.180000,96.140000,224.080000,57.070000,251.470000,62.050000C251.470000,62.050000,270.450000,58.640000,258.180000,96.140000Z" transform="matrix(1 0 0 1 0 -34.92000000000000)" fill="rgb(232,89,108)" stroke="none" stroke-width="1"/><circle id="garden2-circle19" r="5.180000" transform="matrix(1 0 0 1 289.00999999999999 24.65000000000000)" fill="rgb(166,123,175)" stroke="none" stroke-width="1"/><circle id="garden2-circle20" r="2.810000" transform="matrix(1 0 0 1 278.85000000000002 33.19000000000000)" fill="rgb(166,123,175)" stroke="none" stroke-width="1"/><circle id="garden2-circle21" r="1.760000" transform="matrix(1 0 0 1 272.24000000000001 39.48000000000000)" fill="rgb(166,123,175)" stroke="none" stroke-width="1"/><circle id="garden2-circle22" r="1.440000" transform="matrix(1 0 0 1 267.13999999999999 44.65000000000000)" fill="rgb(166,123,175)" stroke="none" stroke-width="1"/><circle id="garden2-circle23" r="1.240000" transform="matrix(1 0 0 1 266.94000000000000 39.61000000000000)" fill="rgb(166,123,175)" stroke="none" stroke-width="1"/><circle id="garden2-circle24" r="1.480000" transform="matrix(1 0 0 1 268.43000000000001 34.10000000000000)" fill="rgb(166,123,175)" stroke="none" stroke-width="1"/><circle id="garden2-circle25" r="2.220000" transform="matrix(1 0 0 1 269.91000000000003 27.62000000000000)" fill="rgb(166,123,175)" stroke="none" stroke-width="1"/><circle id="garden2-circle26" r="3.380000" transform="matrix(1 0 0 1 272.24000000000001 18.13000000000000)" fill="rgb(166,123,175)" stroke="none" stroke-width="1"/><path id="garden2-path25" d="M217.190000,131.460000C217.190000,131.460000,191.430000,110.970000,208.190000,101.690000C208.190000,101.690000,226,84.450000,217.190000,131.460000Z" transform="matrix(1 0 0 1 0 -34.92000000000000)" fill="rgb(232,89,108)" stroke="none" stroke-width="1"/><path id="garden2-path26" d="M216.420000,131.940000C216.420000,131.940000,192.010000,116.720000,189.520000,131.940000C189.520000,131.940000,178.890000,152.820000,216.420000,131.940000Z" transform="matrix(1 0 0 1 0 -34.92000000000000)" fill="rgb(232,89,108)" stroke="none" stroke-width="1"/><circle id="garden2-circle27" r="3.140000" transform="matrix(1 0 0 1 187.77000000000001 69.52000000000000)" fill="rgb(165,124,174)" stroke="none" stroke-width="1"/><circle id="garden2-circle28" r="1.750000" transform="matrix(1 0 0 1 194.03999999999999 75.41000000000000)" fill="rgb(165,124,174)" stroke="none" stroke-width="1"/><circle id="garden2-circle29" r="1.100000" transform="matrix(1 0 0 1 197.99000000000001 79.55000000000000)" fill="rgb(165,124,174)" stroke="none" stroke-width="1"/><circle id="garden2-circle30" r="1.020000" transform="matrix(1 0 0 1 201.25999999999999 83.87000000000000)" fill="rgb(165,124,174)" stroke="none" stroke-width="1"/><circle id="garden2-circle31" r="1.220000" transform="matrix(1 0 0 1 203.50000000000000 87.62000000000000)" fill="rgb(165,124,174)" stroke="none" stroke-width="1"/><circle id="garden2-circle32" r="1.600000" transform="matrix(1 0 0 1 196.88999999999999 85.72000000000000)" fill="rgb(165,124,174)" stroke="none" stroke-width="1"/><circle id="garden2-circle33" r="2.590000" transform="matrix(1 0 0 1 189.46000000000001 83.87000000000000)" fill="rgb(165,124,174)" stroke="none" stroke-width="1"/><circle id="garden2-circle34" r="4.290000" transform="matrix(1 0 0 1 178.22999999999999 81.44000000000000)" fill="rgb(165,124,174)" stroke="none" stroke-width="1"/><polygon id="garden2-polygon7" points="879.230000,217.270000 902.470000,217.270000 909.620000,160.590000 869.530000,157.560000 879.230000,217.270000" fill="rgb(237,113,60)" stroke="none" stroke-width="1"/><polygon id="garden2-polygon8" points="865.960000,147.630000 865.960000,155.620000 913.960000,157.560000 912.420000,146.970000 865.960000,147.630000" fill="rgb(237,113,60)" stroke="none" stroke-width="1"/><path id="garden2-path27" d="M892.860000,179C892.860000,179,881.660000,159.850000,907.220000,142.710000C907.220000,142.720000,912,165.220000,892.860000,179Z" transform="matrix(1 0 0 1 0 -34.92000000000000)" fill="rgb(109,164,114)" stroke="none" stroke-width="1"/><path id="garden2-path28" d="M887.780000,179.390000L889.890000,179.390000C889.890000,179.390000,880.700000,139.660000,898.410000,97.820000L893,96.380000C893,96.380000,882,147.510000,887.780000,179.390000Z" transform="matrix(1 0 0 1 0 -34.92000000000000)" fill="rgb(109,164,114)" stroke="none" stroke-width="1"/><path id="garden2-path29" d="M882.610000,157.850000C882.610000,157.850000,892.380000,132.320000,874,121.090000C874,121.090000,871.060000,148.790000,882.610000,157.850000Z" transform="matrix(1 0 0 1 0 -34.92000000000000)" fill="rgb(109,164,114)" stroke="none" stroke-width="1"/><path id="garden2-path30" d="M853.700000,132.770000L856.760000,130.090000C856.760000,130.090000,880.220000,151.620000,887.260000,176.090000L886.110000,177.190000C886.110000,177.190000,877.830000,148.090000,853.700000,132.770000Z" transform="matrix(1 0 0 1 0 -34.92000000000000)" fill="rgb(109,164,114)" stroke="none" stroke-width="1"/><path id="garden2-path31" d="M845.470000,145.400000C845.470000,145.400000,857.530000,171.640000,883.960000,180.260000C884,180.260000,880.130000,146.940000,845.470000,145.400000Z" transform="matrix(1 0 0 1 0 -34.92000000000000)" fill="rgb(109,164,114)" stroke="none" stroke-width="1"/><path id="garden2-path32" d="M896.400000,94.280000C896.400000,94.280000,912.490000,65.550000,924.400000,80.680000C924.360000,80.680000,944.660000,94.660000,896.400000,94.280000Z" transform="matrix(1 0 0 1 0 -34.92000000000000)" fill="rgb(232,89,108)" stroke="none" stroke-width="1"/><path id="garden2-path33" d="M895.460000,94.280000C895.460000,94.280000,861.360000,55.210000,888.740000,60.190000C888.740000,60.190000,907.730000,56.780000,895.460000,94.280000Z" transform="matrix(1 0 0 1 0 -34.92000000000000)" fill="rgb(232,89,108)" stroke="none" stroke-width="1"/><circle id="garden2-circle35" r="5.180000" transform="matrix(1 0 0 1 926.28999999999996 22.80000000000000)" fill="rgb(166,123,175)" stroke="none" stroke-width="1"/><circle id="garden2-circle36" r="2.810000" transform="matrix(1 0 0 1 916.13000000000000 31.33000000000000)" fill="rgb(166,123,175)" stroke="none" stroke-width="1"/><circle id="garden2-circle37" r="1.760000" transform="matrix(1 0 0 1 909.50999999999999 37.63000000000000)" fill="rgb(166,123,175)" stroke="none" stroke-width="1"/><circle id="garden2-circle38" r="1.440000" transform="matrix(1 0 0 1 904.40999999999997 42.79000000000000)" fill="rgb(166,123,175)" stroke="none" stroke-width="1"/><circle id="garden2-circle39" r="1.240000" transform="matrix(1 0 0 1 904.22000000000003 37.75000000000000)" fill="rgb(166,123,175)" stroke="none" stroke-width="1"/><circle id="garden2-circle40" r="1.480000" transform="matrix(1 0 0 1 905.71000000000004 32.24000000000000)" fill="rgb(166,123,175)" stroke="none" stroke-width="1"/><circle id="garden2-circle41" r="2.220000" transform="matrix(1 0 0 1 907.19000000000005 25.76000000000000)" fill="rgb(166,123,175)" stroke="none" stroke-width="1"/><circle id="garden2-circle42" r="3.380000" transform="matrix(1 0 0 1 909.50999999999999 16.27000000000000)" fill="rgb(166,123,175)" stroke="none" stroke-width="1"/><path id="garden2-path34" d="M854.470000,129.610000C854.470000,129.610000,828.710000,109.120000,845.470000,99.830000C845.470000,99.830000,863.270000,82.600000,854.470000,129.610000Z" transform="matrix(1 0 0 1 0 -34.92000000000000)" fill="rgb(232,89,108)" stroke="none" stroke-width="1"/><path id="garden2-path35" d="M853.700000,130.090000C853.700000,130.090000,829.280000,114.860000,826.800000,130.090000C826.800000,130.090000,816.170000,151,853.700000,130.090000Z" transform="matrix(1 0 0 1 0 -34.92000000000000)" fill="rgb(232,89,108)" stroke="none" stroke-width="1"/><circle id="garden2-circle43" r="3.140000" transform="matrix(1 0 0 1 825.04999999999995 67.66000000000000)" fill="rgb(165,124,174)" stroke="none" stroke-width="1"/><circle id="garden2-circle44" r="1.750000" transform="matrix(1 0 0 1 831.32000000000005 73.55000000000000)" fill="rgb(165,124,174)" stroke="none" stroke-width="1"/><circle id="garden2-circle45" r="1.100000" transform="matrix(1 0 0 1 835.26999999999998 77.69000000000000)" fill="rgb(165,124,174)" stroke="none" stroke-width="1"/><circle id="garden2-circle46" r="1.020000" transform="matrix(1 0 0 1 838.53999999999996 82.01000000000001)" fill="rgb(165,124,174)" stroke="none" stroke-width="1"/><circle id="garden2-circle47" r="1.220000" transform="matrix(1 0 0 1 840.77999999999997 85.76000000000001)" fill="rgb(165,124,174)" stroke="none" stroke-width="1"/><circle id="garden2-circle48" r="1.600000" transform="matrix(1 0 0 1 834.16999999999996 83.86000000000000)" fill="rgb(165,124,174)" stroke="none" stroke-width="1"/><circle id="garden2-circle49" r="2.590000" transform="matrix(1 0 0 1 826.73000000000002 82.01000000000001)" fill="rgb(165,124,174)" stroke="none" stroke-width="1"/><circle id="garden2-circle50" r="4.290000" transform="matrix(1 0 0 1 815.50999999999999 79.58000000000000)" fill="rgb(165,124,174)" stroke="none" stroke-width="1"/><polygon id="garden2-polygon9" points="1559.610000,218.870000 1582.850000,218.870000 1590,162.190000 1549.910000,159.160000 1559.610000,218.870000" fill="rgb(237,113,60)" stroke="none" stroke-width="1"/><polygon id="garden2-polygon10" points="1546.340000,149.220000 1546.340000,157.220000 1594.340000,159.160000 1592.810000,148.560000 1546.340000,149.220000" fill="rgb(237,113,60)" stroke="none" stroke-width="1"/><path id="garden2-path36" d="M1573.240000,180.610000C1573.240000,180.610000,1562.040000,161.460000,1587.600000,144.320000C1587.600000,144.320000,1592.390000,166.820000,1573.240000,180.610000Z" transform="matrix(1 0 0 1 0 -34.92000000000000)" fill="rgb(109,164,114)" stroke="none" stroke-width="1"/><path id="garden2-path37" d="M1568.170000,181L1570.270000,181C1570.270000,181,1561.080000,141.270000,1578.800000,99.420000L1573.340000,98C1573.340000,98,1562.420000,149.110000,1568.170000,181Z" transform="matrix(1 0 0 1 0 -34.92000000000000)" fill="rgb(109,164,114)" stroke="none" stroke-width="1"/><path id="garden2-path38" d="M1563,159.450000C1563,159.450000,1572.760000,133.910000,1554.380000,122.680000C1554.380000,122.680000,1551.440000,150.380000,1563,159.450000Z" transform="matrix(1 0 0 1 0 -34.92000000000000)" fill="rgb(109,164,114)" stroke="none" stroke-width="1"/><path id="garden2-path39" d="M1534.080000,134.360000L1537.150000,131.680000C1537.150000,131.680000,1560.600000,153.220000,1567.640000,177.680000L1566.500000,178.790000C1566.500000,178.790000,1558.210000,149.680000,1534.080000,134.360000Z" transform="matrix(1 0 0 1 0 -34.92000000000000)" fill="rgb(109,164,114)" stroke="none" stroke-width="1"/><path id="garden2-path40" d="M1525.850000,147C1525.850000,147,1537.910000,173.230000,1564.340000,181.850000C1564.340000,181.850000,1560.510000,148.530000,1525.850000,147Z" transform="matrix(1 0 0 1 0 -34.92000000000000)" fill="rgb(109,164,114)" stroke="none" stroke-width="1"/><path id="garden2-path41" d="M1576.780000,95.870000C1576.780000,95.870000,1592.870000,67.150000,1604.780000,82.280000C1604.740000,82.280000,1625,96.260000,1576.780000,95.870000Z" transform="matrix(1 0 0 1 0 -34.92000000000000)" fill="rgb(232,89,108)" stroke="none" stroke-width="1"/><path id="garden2-path42" d="M1575.840000,95.880000C1575.840000,95.880000,1541.740000,56.810000,1569.120000,61.790000C1569.120000,61.790000,1588.110000,58.380000,1575.840000,95.880000Z" transform="matrix(1 0 0 1 0 -34.92000000000000)" fill="rgb(232,89,108)" stroke="none" stroke-width="1"/><circle id="garden2-circle51" r="5.180000" transform="matrix(1 0 0 1 1606.67000000000007 24.39000000000000)" fill="rgb(166,123,175)" stroke="none" stroke-width="1"/><circle id="garden2-circle52" r="2.810000" transform="matrix(1 0 0 1 1596.50999999999999 32.93000000000000)" fill="rgb(166,123,175)" stroke="none" stroke-width="1"/><circle id="garden2-circle53" r="1.760000" transform="matrix(1 0 0 1 1589.90000000000009 39.22000000000000)" fill="rgb(166,123,175)" stroke="none" stroke-width="1"/><circle id="garden2-circle54" r="1.440000" transform="matrix(1 0 0 1 1584.78999999999996 44.39000000000000)" fill="rgb(166,123,175)" stroke="none" stroke-width="1"/><circle id="garden2-circle55" r="1.240000" transform="matrix(1 0 0 1 1584.59999999999991 39.34000000000000)" fill="rgb(166,123,175)" stroke="none" stroke-width="1"/><circle id="garden2-circle56" r="1.480000" transform="matrix(1 0 0 1 1586.08999999999992 33.84000000000000)" fill="rgb(166,123,175)" stroke="none" stroke-width="1"/><circle id="garden2-circle57" r="2.220000" transform="matrix(1 0 0 1 1587.56999999999994 27.36000000000000)" fill="rgb(166,123,175)" stroke="none" stroke-width="1"/><circle id="garden2-circle58" r="3.380000" transform="matrix(1 0 0 1 1589.90000000000009 17.87000000000000)" fill="rgb(166,123,175)" stroke="none" stroke-width="1"/><path id="garden2-path43" d="M1534.850000,131.200000C1534.850000,131.200000,1509.090000,110.710000,1525.850000,101.430000C1525.850000,101.430000,1543.660000,84.190000,1534.850000,131.200000Z" transform="matrix(1 0 0 1 0 -34.92000000000000)" fill="rgb(232,89,108)" stroke="none" stroke-width="1"/><path id="garden2-path44" d="M1534.080000,131.680000C1534.080000,131.680000,1509.670000,116.460000,1507.180000,131.680000C1507.180000,131.680000,1496.550000,152.550000,1534.080000,131.680000Z" transform="matrix(1 0 0 1 0 -34.92000000000000)" fill="rgb(232,89,108)" stroke="none" stroke-width="1"/><circle id="garden2-circle59" r="3.140000" transform="matrix(1 0 0 1 1505.43000000000006 69.26000000000001)" fill="rgb(165,124,174)" stroke="none" stroke-width="1"/><circle id="garden2-circle60" r="1.750000" transform="matrix(1 0 0 1 1511.70000000000005 75.15000000000001)" fill="rgb(165,124,174)" stroke="none" stroke-width="1"/><circle id="garden2-circle61" r="1.100000" transform="matrix(1 0 0 1 1515.65000000000009 79.29000000000001)" fill="rgb(165,124,174)" stroke="none" stroke-width="1"/><circle id="garden2-circle62" r="1.020000" transform="matrix(1 0 0 1 1518.92000000000007 83.61000000000000)" fill="rgb(165,124,174)" stroke="none" stroke-width="1"/><circle id="garden2-circle63" r="1.220000" transform="matrix(1 0 0 1 1521.16000000000008 87.36000000000000)" fill="rgb(165,124,174)" stroke="none" stroke-width="1"/><circle id="garden2-circle64" r="1.600000" transform="matrix(1 0 0 1 1514.54999999999995 85.45999999999999)" fill="rgb(165,124,174)" stroke="none" stroke-width="1"/><circle id="garden2-circle65" r="2.590000" transform="matrix(1 0 0 1 1507.10999999999990 83.61000000000000)" fill="rgb(165,124,174)" stroke="none" stroke-width="1"/><circle id="garden2-circle66" r="4.290000" transform="matrix(1 0 0 1 1495.89000000000010 81.18000000000001)" fill="rgb(165,124,174)" stroke="none" stroke-width="1"/></g><g id="garden2-layer-7"><polygon id="garden2-polygon11" points="367.940000,177.400000 378.410000,219.010000 407.400000,219.010000 414.920000,179.700000 367.940000,177.400000" fill="rgb(244,149,21)" stroke="none" stroke-width="1"/><polygon id="garden2-polygon12" points="362.580000,165.400000 362.580000,175.870000 419.770000,177.400000 417.980000,163.650000 362.580000,165.400000" fill="rgb(244,149,21)" stroke="none" stroke-width="1"/><path id="garden2-path45" d="M391.170000,196L393.720000,196C393.720000,196,393.470000,164.640000,391.170000,157.720000C391.170000,157.720000,381.170000,129.800000,381.720000,124.720000L376.360000,126.290000C376.360000,126.290000,386.240000,143.690000,388.830000,157.710000C388.830000,157.700000,394,169.430000,391.170000,196Z" transform="matrix(1 0 0 1 0 -34.92000000000000)" fill="rgb(109,165,111)" stroke="none" stroke-width="1"/><path id="garden2-path46" d="M395.510000,192.250000C395.510000,192.250000,399.850000,143.700000,446.580000,139.970000C446.580000,140,433,179.590000,395.510000,192.250000Z" transform="matrix(1 0 0 1 0 -34.92000000000000)" fill="rgb(109,165,111)" stroke="none" stroke-width="1"/><path id="garden2-path47" d="M388.830000,190.620000C388.830000,190.620000,377.380000,159.500000,333.470000,171.230000C333.470000,171.230000,343.350000,195.470000,388.830000,190.620000Z" transform="matrix(1 0 0 1 0 -34.92000000000000)" fill="rgb(109,165,111)" stroke="none" stroke-width="1"/><path id="garden2-path48" d="M385,125.260000C385,125.260000,393.460000,163.360000,411.940000,142.110000C412,142.110000,435,120.660000,385,125.260000Z" transform="matrix(1 0 0 1 0 -34.92000000000000)" fill="rgb(236,132,107)" stroke="none" stroke-width="1"/><path id="garden2-path49" d="M389.480000,115.390000C389.480000,115.390000,413.890000,89.390000,422.610000,107.730000C422.610000,107.730000,433.710000,133,389.480000,115.390000Z" transform="matrix(1 0 0 1 0 -34.92000000000000)" fill="rgb(236,132,107)" stroke="none" stroke-width="1"/><path id="garden2-path50" d="M380.580000,110.570000C380.580000,110.570000,376.580000,89,387.340000,94.360000C387.340000,94.360000,399,97.170000,380.580000,110.570000Z" transform="matrix(1 0 0 1 0 -34.92000000000000)" fill="rgb(236,132,107)" stroke="none" stroke-width="1"/><path id="garden2-path51" d="M367.300000,116.320000C367.300000,116.320000,330.530000,130.870000,338.700000,110.570000C338.700000,110.570000,345.600000,85,367.300000,116.320000Z" transform="matrix(1 0 0 1 0 -34.92000000000000)" fill="rgb(236,132,107)" stroke="none" stroke-width="1"/><path id="garden2-path52" d="M365.380000,122.830000C365.380000,122.830000,330.530000,130.230000,339.850000,146.830000C339.850000,146.830000,348.790000,175.550000,365.380000,122.830000Z" transform="matrix(1 0 0 1 0 -34.92000000000000)" fill="rgb(236,132,107)" stroke="none" stroke-width="1"/><path id="garden2-path53" d="M367.300000,120C367.300000,120,371.890000,113.240000,383.380000,115.790000C383.380000,115.790000,392.190000,118.600000,379.170000,123.320000C379.170000,123.340000,366.790000,126.150000,367.300000,120Z" transform="matrix(1 0 0 1 0 -34.92000000000000)" fill="rgb(244,149,21)" stroke="none" stroke-width="1"/><polygon id="garden2-polygon13" points="722.570000,177.400000 733.040000,219.010000 762.030000,219.010000 769.550000,179.700000 722.570000,177.400000" fill="rgb(244,149,21)" stroke="none" stroke-width="1"/><polygon id="garden2-polygon14" points="717.210000,171.040000 717.210000,181.500000 774.400000,183.040000 772.610000,169.290000 717.210000,171.040000" fill="rgb(244,149,21)" stroke="none" stroke-width="1"/><path id="garden2-path54" d="M745.810000,201.620000L748.360000,201.620000C748.360000,201.620000,748.100000,170.260000,745.810000,163.340000C745.810000,163.340000,735.810000,135.420000,736.360000,130.340000L731,131.910000C731,131.910000,740.870000,149.320000,743.470000,163.340000C743.470000,163.340000,748.610000,175.060000,745.810000,201.620000Z" transform="matrix(1 0 0 1 0 -34.92000000000000)" fill="rgb(109,165,111)" stroke="none" stroke-width="1"/><path id="garden2-path55" d="M750.150000,197.890000C750.150000,197.890000,754.490000,149.340000,801.210000,145.610000C801.210000,145.610000,787.680000,185.230000,750.150000,197.890000Z" transform="matrix(1 0 0 1 0 -34.92000000000000)" fill="rgb(109,165,111)" stroke="none" stroke-width="1"/><path id="garden2-path56" d="M743.470000,196.250000C743.470000,196.250000,732,165.140000,688.100000,176.870000C688.100000,176.870000,698,201.100000,743.470000,196.250000Z" transform="matrix(1 0 0 1 0 -34.92000000000000)" fill="rgb(109,165,111)" stroke="none" stroke-width="1"/><path id="garden2-path57" d="M739.680000,130.890000C739.680000,130.890000,748.140000,169,766.610000,147.750000C766.610000,147.750000,789.630000,126.300000,739.680000,130.890000Z" transform="matrix(1 0 0 1 0 -34.92000000000000)" fill="rgb(236,132,107)" stroke="none" stroke-width="1"/><path id="garden2-path58" d="M744.110000,121C744.110000,121,768.530000,95,777.240000,113.340000C777.240000,113.370000,788.350000,138.650000,744.110000,121Z" transform="matrix(1 0 0 1 0 -34.92000000000000)" fill="rgb(236,132,107)" stroke="none" stroke-width="1"/><path id="garden2-path59" d="M735.210000,116.210000C735.210000,116.210000,731.210000,94.640000,741.980000,100C742,100,753.590000,102.810000,735.210000,116.210000Z" transform="matrix(1 0 0 1 0 -34.92000000000000)" fill="rgb(236,132,107)" stroke="none" stroke-width="1"/><path id="garden2-path60" d="M721.930000,122C721.930000,122,685.170000,136.550000,693.340000,116.250000C693.340000,116.210000,700.230000,90.680000,721.930000,122Z" transform="matrix(1 0 0 1 0 -34.92000000000000)" fill="rgb(236,132,107)" stroke="none" stroke-width="1"/><path id="garden2-path61" d="M720,128.470000C720,128.470000,685.150000,135.870000,694.470000,152.470000C694.490000,152.470000,703.420000,181.190000,720,128.470000Z" transform="matrix(1 0 0 1 0 -34.92000000000000)" fill="rgb(236,132,107)" stroke="none" stroke-width="1"/><path id="garden2-path62" d="M721.930000,125.660000C721.930000,125.660000,726.530000,118.890000,738.020000,121.450000C738.020000,121.450000,746.830000,124.260000,733.810000,128.980000C733.810000,129,721.420000,131.790000,721.930000,125.660000Z" transform="matrix(1 0 0 1 0 -34.92000000000000)" fill="rgb(244,149,21)" stroke="none" stroke-width="1"/><polygon id="garden2-polygon15" points="1396.730000,179.140000 1407.200000,220.760000 1436.190000,220.760000 1443.710000,181.440000 1396.730000,179.140000" fill="rgb(244,149,21)" stroke="none" stroke-width="1"/><polygon id="garden2-polygon16" points="1391.370000,172.780000 1391.370000,183.250000 1448.560000,184.780000 1446.770000,171.030000 1391.370000,172.780000" fill="rgb(244,149,21)" stroke="none" stroke-width="1"/><path id="garden2-path63" d="M1420,203.360000L1422.550000,203.360000C1422.550000,203.360000,1422.290000,172,1420,165.090000C1420,165.090000,1410,137.160000,1410.550000,132.090000L1405.190000,133.660000C1405.190000,133.660000,1415.060000,151.060000,1417.660000,165.090000C1417.630000,165.090000,1422.770000,176.810000,1420,203.360000Z" transform="matrix(1 0 0 1 0 -34.92000000000000)" fill="rgb(109,165,111)" stroke="none" stroke-width="1"/><path id="garden2-path64" d="M1424.310000,199.630000C1424.310000,199.630000,1428.650000,151.080000,1475.370000,147.350000C1475.370000,147.350000,1461.840000,187,1424.310000,199.630000Z" transform="matrix(1 0 0 1 0 -34.92000000000000)" fill="rgb(109,165,111)" stroke="none" stroke-width="1"/><path id="garden2-path65" d="M1417.630000,198C1417.630000,198,1406.180000,166.880000,1362.260000,178.610000C1362.260000,178.610000,1372.140000,202.850000,1417.630000,198Z" transform="matrix(1 0 0 1 0 -34.92000000000000)" fill="rgb(109,165,111)" stroke="none" stroke-width="1"/><path id="garden2-path66" d="M1413.840000,132.640000C1413.840000,132.640000,1422.300000,170.740000,1440.770000,149.490000C1440.770000,149.490000,1463.780000,128,1413.840000,132.640000Z" transform="matrix(1 0 0 1 0 -34.92000000000000)" fill="rgb(236,132,107)" stroke="none" stroke-width="1"/><path id="garden2-path67" d="M1418.270000,122.780000C1418.270000,122.780000,1442.690000,96.780000,1451.400000,115.120000C1451.400000,115.120000,1462.510000,140.390000,1418.270000,122.780000Z" transform="matrix(1 0 0 1 0 -34.92000000000000)" fill="rgb(236,132,107)" stroke="none" stroke-width="1"/><path id="garden2-path68" d="M1409.370000,118C1409.370000,118,1405.370000,96.420000,1416.140000,101.780000C1416.140000,101.740000,1427.750000,104.550000,1409.370000,118Z" transform="matrix(1 0 0 1 0 -34.92000000000000)" fill="rgb(236,132,107)" stroke="none" stroke-width="1"/><path id="garden2-path69" d="M1396.090000,123.700000C1396.090000,123.700000,1359.330000,138.260000,1367.500000,117.960000C1367.500000,118,1374.390000,92.430000,1396.090000,123.700000Z" transform="matrix(1 0 0 1 0 -34.92000000000000)" fill="rgb(236,132,107)" stroke="none" stroke-width="1"/><path id="garden2-path70" d="M1394.180000,130.210000C1394.180000,130.210000,1359.330000,137.620000,1368.650000,154.210000C1368.650000,154.210000,1377.580000,182.940000,1394.180000,130.210000Z" transform="matrix(1 0 0 1 0 -34.92000000000000)" fill="rgb(236,132,107)" stroke="none" stroke-width="1"/><path id="garden2-path71" d="M1396.090000,127.400000C1396.090000,127.400000,1400.690000,120.640000,1412.180000,123.190000C1412.180000,123.190000,1420.990000,126,1407.970000,130.720000C1408,130.720000,1395.580000,133.530000,1396.090000,127.400000Z" transform="matrix(1 0 0 1 0 -34.92000000000000)" fill="rgb(244,149,21)" stroke="none" stroke-width="1"/></g><g id="garden2-layer-8"><polygon id="garden2-polygon17" points="487.250000,179.720000 490.320000,189.680000 546.740000,191.220000 549.810000,179.720000 487.250000,179.720000" fill="rgb(236,141,63)" stroke="none" stroke-width="1"/><polygon id="garden2-polygon18" points="495.420000,192.490000 505.890000,219.560000 534.230000,219.560000 542.400000,192.490000 495.420000,192.490000" fill="rgb(236,141,63)" stroke="none" stroke-width="1"/><path id="garden2-path72" d="M483.420000,188.860000C483.420000,188.860000,492.100000,211.330000,511,212.090000C511,212.090000,508.700000,188.860000,483.420000,188.860000Z" transform="matrix(1 0 0 1 0 -34.92000000000000)" fill="rgb(109,165,111)" stroke="none" stroke-width="1"/><path id="garden2-path73" d="M516.470000,212.090000C516.470000,212.090000,495.680000,192.430000,498.470000,154.390000C498.490000,154.390000,527.810000,166.140000,516.470000,212.090000Z" transform="matrix(1 0 0 1 0 -34.92000000000000)" fill="rgb(109,165,111)" stroke="none" stroke-width="1"/><path id="garden2-path74" d="M524,212.090000C524,212.090000,512,190.090000,540.080000,171.750000C540.100000,171.750000,545.210000,196.770000,524,212.090000Z" transform="matrix(1 0 0 1 0 -34.92000000000000)" fill="rgb(109,165,111)" stroke="none" stroke-width="1"/><path id="garden2-path75" d="M531.060000,213.370000C531.060000,213.370000,536.270000,189.110000,555.420000,191.920000C555.420000,191.920000,552.650000,208.770000,531.060000,213.370000Z" transform="matrix(1 0 0 1 0 -34.92000000000000)" fill="rgb(109,165,111)" stroke="none" stroke-width="1"/><path id="garden2-path76" d="M520.440000,178.390000L521.440000,185.030000C521.440000,185.030000,527.820000,159.750000,525.270000,147.240000C525.270000,147.240000,519.650000,123.750000,520.410000,122.240000L515.600000,122.240000C515.600000,122.240000,524.400000,145.030000,523.920000,152.240000C524,152.190000,525.930000,166.870000,520.440000,178.390000Z" transform="matrix(1 0 0 1 0 -34.92000000000000)" fill="rgb(109,165,111)" stroke="none" stroke-width="1"/><ellipse id="garden2-ellipse1" rx="20.120000" ry="18.700000" transform="matrix(1 0 0 1 513.86000000000001 67.31999999999999)" fill="rgb(255,145,8)" stroke="none" stroke-width="1"/><ellipse id="garden2-ellipse2" rx="11.490000" ry="9.960000" transform="matrix(1 0 0 1 517.38000000000000 66.87000000000000)" fill="rgb(232,89,108)" stroke="none" stroke-width="1"/><circle id="garden2-circle67" r="1.030000" transform="matrix(1 0 0 1 512.65999999999997 54.11000000000000)" fill="rgb(232,89,108)" stroke="none" stroke-width="1"/><circle id="garden2-circle68" r="1.560000" transform="matrix(1 0 0 1 506.77999999999997 56.50000000000000)" fill="rgb(232,89,108)" stroke="none" stroke-width="1"/><circle id="garden2-circle69" r="2.360000" transform="matrix(1 0 0 1 501.00999999999999 66.68000000000001)" fill="rgb(232,89,108)" stroke="none" stroke-width="1"/><circle id="garden2-circle70" r="2.080000" transform="matrix(1 0 0 1 507.07999999999998 78.37000000000000)" fill="rgb(232,89,108)" stroke="none" stroke-width="1"/><circle id="garden2-circle71" r="1.390000" transform="matrix(1 0 0 1 516.22000000000003 80.84000000000000)" fill="rgb(232,89,108)" stroke="none" stroke-width="1"/><circle id="garden2-circle72" r="0.800000" transform="matrix(1 0 0 1 521.88000000000000 78.37000000000000)" fill="rgb(232,89,108)" stroke="none" stroke-width="1"/><polygon id="garden2-polygon19" points="994.580000,181.730000 997.640000,191.690000 1054.070000,193.220000 1057.130000,181.730000 994.580000,181.730000" fill="rgb(236,141,63)" stroke="none" stroke-width="1"/><polygon id="garden2-polygon20" points="1002.750000,192.560000 1013.220000,219.620000 1041.560000,219.620000 1049.730000,192.560000 1002.750000,192.560000" fill="rgb(236,141,63)" stroke="none" stroke-width="1"/><path id="garden2-path77" d="M990.750000,190.860000C990.750000,190.860000,999.430000,213.330000,1018.320000,214.100000C1018.320000,214.100000,1016,190.860000,990.750000,190.860000Z" transform="matrix(1 0 0 1 0 -34.92000000000000)" fill="rgb(109,165,111)" stroke="none" stroke-width="1"/><path id="garden2-path78" d="M1023.790000,214.100000C1023.790000,214.100000,1003,194.440000,1005.790000,156.390000C1005.810000,156.390000,1035.140000,168.140000,1023.790000,214.100000Z" transform="matrix(1 0 0 1 0 -34.92000000000000)" fill="rgb(109,165,111)" stroke="none" stroke-width="1"/><path id="garden2-path79" d="M1031.340000,214.100000C1031.340000,214.100000,1019.340000,192.100000,1047.430000,173.760000C1047.430000,173.760000,1052.530000,198.780000,1031.340000,214.100000Z" transform="matrix(1 0 0 1 0 -34.92000000000000)" fill="rgb(109,165,111)" stroke="none" stroke-width="1"/><path id="garden2-path80" d="M1038.380000,215.370000C1038.380000,215.370000,1043.600000,191.120000,1062.750000,193.930000C1062.750000,193.930000,1060,210.780000,1038.380000,215.370000Z" transform="matrix(1 0 0 1 0 -34.92000000000000)" fill="rgb(109,165,111)" stroke="none" stroke-width="1"/><path id="garden2-path81" d="M1027.770000,180.390000L1028.770000,187.030000C1028.770000,187.030000,1035.140000,161.760000,1032.590000,149.250000C1032.590000,149.250000,1026.970000,125.760000,1027.740000,124.250000L1023,124.250000C1023,124.250000,1031.810000,147.040000,1031.330000,154.250000C1031.280000,154.190000,1033.260000,168.870000,1027.770000,180.390000Z" transform="matrix(1 0 0 1 0 -34.92000000000000)" fill="rgb(109,165,111)" stroke="none" stroke-width="1"/><ellipse id="garden2-ellipse3" rx="20.120000" ry="18.700000" transform="matrix(1 0 0 1 1021.19000000000005 69.31999999999999)" fill="rgb(255,145,8)" stroke="none" stroke-width="1"/><ellipse id="garden2-ellipse4" rx="11.490000" ry="9.960000" transform="matrix(1 0 0 1 1024.71000000000004 68.88000000000000)" fill="rgb(232,89,108)" stroke="none" stroke-width="1"/><circle id="garden2-circle73" r="1.030000" transform="matrix(1 0 0 1 1019.99000000000001 56.12000000000000)" fill="rgb(232,89,108)" stroke="none" stroke-width="1"/><circle id="garden2-circle74" r="1.560000" transform="matrix(1 0 0 1 1014.11000000000001 58.50000000000000)" fill="rgb(232,89,108)" stroke="none" stroke-width="1"/><circle id="garden2-circle75" r="2.360000" transform="matrix(1 0 0 1 1008.33000000000004 68.69000000000000)" fill="rgb(232,89,108)" stroke="none" stroke-width="1"/><circle id="garden2-circle76" r="2.080000" transform="matrix(1 0 0 1 1014.39999999999998 80.37000000000000)" fill="rgb(232,89,108)" stroke="none" stroke-width="1"/><circle id="garden2-circle77" r="1.390000" transform="matrix(1 0 0 1 1023.53999999999996 82.84000000000000)" fill="rgb(232,89,108)" stroke="none" stroke-width="1"/><circle id="garden2-circle78" r="0.800000" transform="matrix(1 0 0 1 1029.21000000000004 80.37000000000000)" fill="rgb(232,89,108)" stroke="none" stroke-width="1"/><path id="garden2-path82" d="M526.260000,119.690000C526.260000,119.690000,531.260000,117.690000,535.100000,107.430000C535.100000,107.430000,547.360000,116.110000,542.760000,121.220000C542.760000,121.220000,537.580000,126.840000,526.260000,119.690000Z" transform="matrix(1 0 0 1 0 -34.92000000000000)" fill="rgb(166,123,175)" stroke="none" stroke-width="1"/><path id="garden2-path83" d="M533.370000,91.070000C533.370000,91.070000,537.050000,99.250000,535.590000,104.860000C535.590000,104.860000,547.150000,105.860000,547.920000,96.430000C547.920000,96.430000,546.900000,89,533.370000,91.070000Z" transform="matrix(1 0 0 1 0 -34.92000000000000)" fill="rgb(166,123,175)" stroke="none" stroke-width="1"/><path id="garden2-path84" d="M518.530000,81.630000C518.530000,81.630000,526.830000,85.220000,529.890000,88.770000C529.890000,88.770000,537.040000,81.630000,532.440000,74.990000C532.440000,75,525,67.840000,518.530000,81.630000Z" transform="matrix(1 0 0 1 0 -34.92000000000000)" fill="rgb(166,123,175)" stroke="none" stroke-width="1"/><path id="garden2-path85" d="M515.630000,81C515.630000,81,505.380000,81.160000,501.300000,85.250000C501.300000,85.250000,498.490000,72.480000,504.100000,70.700000C504.100000,70.650000,512.340000,67.260000,515.630000,81Z" transform="matrix(1 0 0 1 0 -34.92000000000000)" fill="rgb(166,123,175)" stroke="none" stroke-width="1"/><path id="garden2-path86" d="M499.710000,85.700000C499.710000,85.700000,492.240000,91.760000,491.990000,96.780000C491.990000,96.780000,480.750000,90.780000,484.330000,84.170000C484.330000,84.170000,486.500000,76.770000,499.710000,85.700000Z" transform="matrix(1 0 0 1 0 -34.92000000000000)" fill="rgb(166,123,175)" stroke="none" stroke-width="1"/><path id="garden2-path87" d="M491.590000,99.240000C491.590000,99.240000,492.360000,109.240000,495.420000,113.540000C495.420000,113.540000,483.170000,118.140000,480.100000,108.940000C480.100000,108.940000,480.360000,101.280000,491.590000,99.240000Z" transform="matrix(1 0 0 1 0 -34.92000000000000)" fill="rgb(166,123,175)" stroke="none" stroke-width="1"/><path id="garden2-path88" d="M495.420000,114.840000C495.420000,114.840000,499.240000,119.720000,508.110000,122.840000C508.110000,122.840000,500.020000,134.530000,493.890000,129.930000C493.890000,129.880000,488.780000,127.890000,495.420000,114.840000Z" transform="matrix(1 0 0 1 0 -34.92000000000000)" fill="rgb(166,123,175)" stroke="none" stroke-width="1"/><path id="garden2-path89" d="M1033.580000,121.690000C1033.580000,121.690000,1038.580000,119.690000,1042.430000,109.440000C1042.430000,109.440000,1054.680000,118.120000,1050.090000,123.220000C1050.090000,123.220000,1044.910000,128.840000,1033.580000,121.690000Z" transform="matrix(1 0 0 1 0 -34.92000000000000)" fill="rgb(166,123,175)" stroke="none" stroke-width="1"/><path id="garden2-path90" d="M1040.690000,93.080000C1040.690000,93.080000,1044.370000,101.250000,1042.910000,106.860000C1042.910000,106.860000,1054.480000,107.860000,1055.250000,98.440000C1055.250000,98.440000,1054.220000,91,1040.690000,93.080000Z" transform="matrix(1 0 0 1 0 -34.92000000000000)" fill="rgb(166,123,175)" stroke="none" stroke-width="1"/><path id="garden2-path91" d="M1025.850000,83.630000C1025.850000,83.630000,1034.150000,87.220000,1037.220000,90.780000C1037.220000,90.780000,1044.360000,83.630000,1039.770000,76.990000C1039.770000,77,1032.360000,69.840000,1025.850000,83.630000Z" transform="matrix(1 0 0 1 0 -34.92000000000000)" fill="rgb(166,123,175)" stroke="none" stroke-width="1"/><path id="garden2-path92" d="M1023,83C1023,83,1012.760000,83.160000,1008.670000,87.240000C1008.670000,87.240000,1005.860000,74.480000,1011.480000,72.690000C1011.430000,72.650000,1019.660000,69.260000,1023,83Z" transform="matrix(1 0 0 1 0 -34.92000000000000)" fill="rgb(166,123,175)" stroke="none" stroke-width="1"/><path id="garden2-path93" d="M1007,87.710000C1007,87.710000,999.530000,93.770000,999.270000,98.780000C999.270000,98.780000,988.040000,92.780000,991.610000,86.180000C991.650000,86.180000,993.820000,78.770000,1007,87.710000Z" transform="matrix(1 0 0 1 0 -34.92000000000000)" fill="rgb(166,123,175)" stroke="none" stroke-width="1"/><path id="garden2-path94" d="M998.920000,101.250000C998.920000,101.250000,999.680000,111.250000,1002.750000,115.540000C1002.750000,115.540000,990.490000,120.140000,987.430000,110.950000C987.430000,111,987.680000,103.290000,998.920000,101.250000Z" transform="matrix(1 0 0 1 0 -34.92000000000000)" fill="rgb(166,123,175)" stroke="none" stroke-width="1"/><path id="garden2-path95" d="M1002.750000,116.850000C1002.750000,116.850000,1006.570000,121.730000,1015.430000,124.790000C1015.430000,124.790000,1007.340000,136.480000,1001.220000,131.880000C1001.220000,131.880000,996.110000,129.900000,1002.750000,116.850000Z" transform="matrix(1 0 0 1 0 -34.92000000000000)" fill="rgb(166,123,175)" stroke="none" stroke-width="1"/><polygon id="garden2-polygon21" points="1770.900000,180.780000 1773.970000,190.740000 1830.390000,192.270000 1833.460000,180.780000 1770.900000,180.780000" fill="rgb(236,141,63)" stroke="none" stroke-width="1"/><polygon id="garden2-polygon22" points="1779.080000,191.610000 1789.540000,218.670000 1817.880000,218.670000 1826.050000,191.610000 1779.080000,191.610000" fill="rgb(236,141,63)" stroke="none" stroke-width="1"/><path id="garden2-path96" d="M1767.080000,189.920000C1767.080000,189.920000,1775.760000,212.380000,1794.650000,213.150000C1794.650000,213.150000,1792.350000,189.920000,1767.080000,189.920000Z" transform="matrix(1 0 0 1 0 -34.92000000000000)" fill="rgb(109,165,111)" stroke="none" stroke-width="1"/><path id="garden2-path97" d="M1800.120000,213.150000C1800.120000,213.150000,1779.330000,193.490000,1782.120000,155.450000C1782.140000,155.450000,1811.470000,167.190000,1800.120000,213.150000Z" transform="matrix(1 0 0 1 0 -34.92000000000000)" fill="rgb(109,165,111)" stroke="none" stroke-width="1"/><path id="garden2-path98" d="M1807.670000,213.150000C1807.670000,213.150000,1795.670000,191.150000,1823.760000,172.810000C1823.760000,172.810000,1828.860000,197.830000,1807.670000,213.150000Z" transform="matrix(1 0 0 1 0 -34.92000000000000)" fill="rgb(109,165,111)" stroke="none" stroke-width="1"/><path id="garden2-path99" d="M1814.710000,214.430000C1814.710000,214.430000,1819.930000,190.170000,1839.080000,192.980000C1839.080000,193,1836.300000,209.830000,1814.710000,214.430000Z" transform="matrix(1 0 0 1 0 -34.92000000000000)" fill="rgb(109,165,111)" stroke="none" stroke-width="1"/><path id="garden2-path100" d="M1804.100000,179.450000L1805.100000,186.090000C1805.100000,186.090000,1811.480000,160.810000,1808.930000,148.300000C1808.930000,148.300000,1803.310000,124.810000,1804.080000,123.300000L1799.260000,123.300000C1799.260000,123.300000,1808.070000,146.080000,1807.590000,153.300000C1807.610000,153.250000,1809.590000,167.930000,1804.100000,179.450000Z" transform="matrix(1 0 0 1 0 -34.92000000000000)" fill="rgb(109,165,111)" stroke="none" stroke-width="1"/><ellipse id="garden2-ellipse5" rx="20.120000" ry="18.700000" transform="matrix(1 0 0 1 1797.50999999999999 68.38000000000000)" fill="rgb(255,145,8)" stroke="none" stroke-width="1"/><ellipse id="garden2-ellipse6" rx="11.490000" ry="9.960000" transform="matrix(1 0 0 1 1801.03999999999996 67.93000000000001)" fill="rgb(232,89,108)" stroke="none" stroke-width="1"/><circle id="garden2-circle79" r="1.030000" transform="matrix(1 0 0 1 1796.31999999999994 55.17000000000000)" fill="rgb(232,89,108)" stroke="none" stroke-width="1"/><circle id="garden2-circle80" r="1.560000" transform="matrix(1 0 0 1 1790.44000000000005 57.56000000000000)" fill="rgb(232,89,108)" stroke="none" stroke-width="1"/><circle id="garden2-circle81" r="2.360000" transform="matrix(1 0 0 1 1784.66000000000008 67.73999999999999)" fill="rgb(232,89,108)" stroke="none" stroke-width="1"/><circle id="garden2-circle82" r="2.080000" transform="matrix(1 0 0 1 1790.73000000000002 79.43000000000001)" fill="rgb(232,89,108)" stroke="none" stroke-width="1"/><circle id="garden2-circle83" r="1.390000" transform="matrix(1 0 0 1 1799.86999999999989 81.89000000000000)" fill="rgb(232,89,108)" stroke="none" stroke-width="1"/><circle id="garden2-circle84" r="0.800000" transform="matrix(1 0 0 1 1805.52999999999997 79.43000000000001)" fill="rgb(232,89,108)" stroke="none" stroke-width="1"/><path id="garden2-path101" d="M1809.910000,120.740000C1809.910000,120.740000,1814.910000,118.740000,1818.750000,108.490000C1818.750000,108.490000,1831.010000,117.170000,1826.410000,122.280000C1826.410000,122.280000,1821.240000,127.890000,1809.910000,120.740000Z" transform="matrix(1 0 0 1 0 -34.92000000000000)" fill="rgb(166,123,175)" stroke="none" stroke-width="1"/><path id="garden2-path102" d="M1817,92.130000C1817,92.130000,1820.680000,100.300000,1819.220000,105.920000C1819.220000,105.920000,1830.790000,106.920000,1831.550000,97.490000C1831.570000,97.490000,1830.550000,90.090000,1817,92.130000Z" transform="matrix(1 0 0 1 0 -34.92000000000000)" fill="rgb(166,123,175)" stroke="none" stroke-width="1"/><path id="garden2-path103" d="M1802.180000,82.680000C1802.180000,82.680000,1810.480000,86.280000,1813.540000,89.830000C1813.540000,89.830000,1820.690000,82.680000,1816.100000,76.040000C1816.100000,76,1808.690000,68.890000,1802.180000,82.680000Z" transform="matrix(1 0 0 1 0 -34.92000000000000)" fill="rgb(166,123,175)" stroke="none" stroke-width="1"/><path id="garden2-path104" d="M1799.280000,82C1799.280000,82,1789.030000,82.160000,1784.950000,86.250000C1784.950000,86.250000,1782.140000,73.480000,1787.760000,71.690000C1787.760000,71.700000,1796,68.320000,1799.280000,82Z" transform="matrix(1 0 0 1 0 -34.92000000000000)" fill="rgb(166,123,175)" stroke="none" stroke-width="1"/><path id="garden2-path105" d="M1783.360000,86.760000C1783.360000,86.760000,1775.900000,92.820000,1775.640000,97.830000C1775.640000,97.830000,1764.410000,91.830000,1767.980000,85.230000C1768,85.230000,1770.150000,77.820000,1783.360000,86.760000Z" transform="matrix(1 0 0 1 0 -34.92000000000000)" fill="rgb(166,123,175)" stroke="none" stroke-width="1"/><path id="garden2-path106" d="M1775.250000,100.300000C1775.250000,100.300000,1776.010000,110.300000,1779.080000,114.600000C1779.080000,114.600000,1766.820000,119.190000,1763.760000,110C1763.760000,110,1764,102.340000,1775.250000,100.300000Z" transform="matrix(1 0 0 1 0 -34.92000000000000)" fill="rgb(166,123,175)" stroke="none" stroke-width="1"/><path id="garden2-path107" d="M1779.080000,115.900000C1779.080000,115.900000,1782.890000,120.780000,1791.760000,123.840000C1791.760000,123.840000,1783.670000,135.530000,1777.540000,130.940000C1777.540000,130.940000,1772.440000,129,1779.080000,115.900000Z" transform="matrix(1 0 0 1 0 -34.92000000000000)" fill="rgb(166,123,175)" stroke="none" stroke-width="1"/></g><g id="garden2-layer-9"><polygon id="garden2-polygon23" points="606.060000,151.800000 605.110000,160.410000 652.210000,159.460000 652.210000,153.140000 606.060000,151.800000" fill="rgb(250,159,16)" stroke="none" stroke-width="1"/><polygon id="garden2-polygon24" points="606.980000,162.380000 646.430000,159.500000 638,219.250000 614.070000,219.250000 606.980000,162.380000" fill="rgb(250,159,16)" stroke="none" stroke-width="1"/><path id="garden2-path108" d="M628.470000,178.100000C628.470000,178.100000,635.170000,158.190000,662.940000,166.230000C662.940000,166.230000,649.910000,182.510000,628.470000,178.100000Z" transform="matrix(1 0 0 1 0 -34.92000000000000)" fill="rgb(109,165,111)" stroke="none" stroke-width="1"/><path id="garden2-path109" d="M621,177.330000C621,177.330000,600.320000,183.270000,586,165.460000C586,165.460000,611.230000,157.610000,621,177.330000Z" transform="matrix(1 0 0 1 0 -34.92000000000000)" fill="rgb(109,165,111)" stroke="none" stroke-width="1"/><path id="garden2-path110" d="M623.490000,183.460000L626,183.460000C626,183.460000,618.340000,165.080000,623.510000,133.290000L628.680000,112.230000L623.890000,111.230000C624.138646,120.950247,622.904478,130.651621,620.230000,140C617.555522,149.348379,617.940000,152.440000,623.490000,183.460000Z" transform="matrix(1 0 0 1 0 -34.92000000000000)" fill="rgb(109,165,111)" stroke="none" stroke-width="1"/><path id="garden2-path111" d="M623.300000,154.930000C623.300000,154.930000,635.360000,135.020000,659.110000,147.370000C659.110000,147.370000,645.320000,161.820000,623.300000,154.930000Z" transform="matrix(1 0 0 1 0 -34.92000000000000)" fill="rgb(109,165,111)" stroke="none" stroke-width="1"/><path id="garden2-path112" d="M617,153.780000C617,153.780000,611.250000,133.480000,583.680000,138.460000C583.660000,138.460000,593.620000,156.270000,617,153.780000Z" transform="matrix(1 0 0 1 0 -34.92000000000000)" fill="rgb(109,165,111)" stroke="none" stroke-width="1"/><path id="garden2-path113" d="M627.130000,131.760000C627.130000,131.760000,634.600000,117.020000,655.280000,125.440000C655.280000,125.440000,642.830000,137.120000,627.130000,131.760000Z" transform="matrix(1 0 0 1 0 -34.92000000000000)" fill="rgb(109,165,111)" stroke="none" stroke-width="1"/><path id="garden2-path114" d="M618.510000,131.380000C618.510000,131.380000,615.450000,115.870000,593,119.700000C593,119.700000,600.510000,133.100000,618.510000,131.380000Z" transform="matrix(1 0 0 1 0 -34.92000000000000)" fill="rgb(109,165,111)" stroke="none" stroke-width="1"/><path id="garden2-path115" d="M625.130000,101.510000L622.130000,98.250000C622.130000,98.250000,615.810000,106.480000,627.130000,108.780000C627.130000,108.780000,639.570000,110.890000,636.130000,100.930000L632.680000,101.120000L630,97.120000Z" transform="matrix(1 0 0 1 0 -34.92000000000000)" fill="rgb(109,165,111)" stroke="none" stroke-width="1"/><path id="garden2-path116" d="M634.210000,98.630000C634.210000,98.630000,643.020000,67.230000,659.110000,79.290000C659.110000,79.290000,681.320000,91.160000,634.210000,98.630000Z" transform="matrix(1 0 0 1 0 -34.92000000000000)" fill="rgb(114,151,201)" stroke="none" stroke-width="1"/><path id="garden2-path117" d="M627.130000,97.100000C627.130000,97.100000,602.620000,51.720000,628.660000,63.590000C628.660000,63.590000,647.810000,67.420000,627.130000,97.100000Z" transform="matrix(1 0 0 1 0 -34.92000000000000)" fill="rgb(114,151,201)" stroke="none" stroke-width="1"/><path id="garden2-path118" d="M624.210000,97.100000C624.210000,97.100000,612.210000,67.800000,601.280000,77.760000C601.280000,77.760000,574,90.210000,624.210000,97.100000Z" transform="matrix(1 0 0 1 0 -34.92000000000000)" fill="rgb(114,151,201)" stroke="none" stroke-width="1"/><polygon id="garden2-polygon25" points="1139.950000,152.300000 1138.990000,160.920000 1186.100000,159.960000 1186.100000,153.640000 1139.950000,152.300000" fill="rgb(250,159,16)" stroke="none" stroke-width="1"/><polygon id="garden2-polygon26" points="1143.790000,162.380000 1183.240000,159.500000 1174.810000,219.250000 1150.880000,219.250000 1143.790000,162.380000" fill="rgb(250,159,16)" stroke="none" stroke-width="1"/><path id="garden2-path119" d="M1162.350000,178.600000C1162.350000,178.600000,1169.060000,158.690000,1196.820000,166.730000C1196.820000,166.730000,1183.800000,183,1162.350000,178.600000Z" transform="matrix(1 0 0 1 0 -34.92000000000000)" fill="rgb(109,165,111)" stroke="none" stroke-width="1"/><path id="garden2-path120" d="M1154.890000,177.840000C1154.890000,177.840000,1134.210000,183.770000,1119.840000,165.970000C1119.840000,166,1145.120000,158.110000,1154.890000,177.840000Z" transform="matrix(1 0 0 1 0 -34.92000000000000)" fill="rgb(109,165,111)" stroke="none" stroke-width="1"/><path id="garden2-path121" d="M1157.380000,184L1159.860000,184C1159.860000,184,1152.210000,165.610000,1157.380000,133.830000L1162.550000,112.760000L1157.760000,111.760000C1158.003953,121.465508,1156.776705,131.151996,1154.120000,140.490000C1151.463295,149.828004,1151.820000,152.940000,1157.380000,184Z" transform="matrix(1 0 0 1 0 -34.92000000000000)" fill="rgb(109,165,111)" stroke="none" stroke-width="1"/><path id="garden2-path122" d="M1157.180000,155.430000C1157.180000,155.430000,1169.250000,135.520000,1192.990000,147.870000C1193,147.870000,1179.210000,162.330000,1157.180000,155.430000Z" transform="matrix(1 0 0 1 0 -34.92000000000000)" fill="rgb(109,165,111)" stroke="none" stroke-width="1"/><path id="garden2-path123" d="M1150.860000,154.280000C1150.860000,154.280000,1145.120000,134,1117.550000,139C1117.550000,139,1127.500000,156.770000,1150.860000,154.280000Z" transform="matrix(1 0 0 1 0 -34.92000000000000)" fill="rgb(109,165,111)" stroke="none" stroke-width="1"/><path id="garden2-path124" d="M1161,132.260000C1161,132.260000,1168.470000,117.520000,1189.150000,125.940000C1189.160000,125.940000,1176.720000,137.620000,1161,132.260000Z" transform="matrix(1 0 0 1 0 -34.92000000000000)" fill="rgb(109,165,111)" stroke="none" stroke-width="1"/><path id="garden2-path125" d="M1152.400000,131.880000C1152.400000,131.880000,1149.330000,116.370000,1126.930000,120.200000C1126.930000,120.200000,1134.400000,133.600000,1152.400000,131.880000Z" transform="matrix(1 0 0 1 0 -34.92000000000000)" fill="rgb(109,165,111)" stroke="none" stroke-width="1"/><path id="garden2-path126" d="M1159,102L1156,98.740000C1156,98.740000,1149.680000,106.980000,1161,109.270000C1161,109.270000,1173.450000,111.380000,1170,101.420000L1166.560000,101.610000L1163.880000,97.610000Z" transform="matrix(1 0 0 1 0 -34.92000000000000)" fill="rgb(109,165,111)" stroke="none" stroke-width="1"/><path id="garden2-path127" d="M1168.100000,99.140000C1168.100000,99.140000,1176.910000,67.730000,1192.990000,79.800000C1193,79.800000,1215.210000,91.670000,1168.100000,99.140000Z" transform="matrix(1 0 0 1 0 -34.92000000000000)" fill="rgb(114,151,201)" stroke="none" stroke-width="1"/><path id="garden2-path128" d="M1161,97.600000C1161,97.600000,1136.490000,52.220000,1162.540000,64.090000C1162.550000,64.090000,1181.690000,67.920000,1161,97.600000Z" transform="matrix(1 0 0 1 0 -34.92000000000000)" fill="rgb(114,151,201)" stroke="none" stroke-width="1"/><path id="garden2-path129" d="M1158.100000,97.600000C1158.100000,97.600000,1146.100000,68.310000,1135.160000,78.260000C1135.160000,78.260000,1107.880000,90.710000,1158.100000,97.600000Z" transform="matrix(1 0 0 1 0 -34.92000000000000)" fill="rgb(114,151,201)" stroke="none" stroke-width="1"/><polygon id="garden2-polygon27" points="1650.490000,151.460000 1649.540000,160.070000 1696.640000,159.110000 1696.640000,152.790000 1650.490000,151.460000" fill="rgb(250,159,16)" stroke="none" stroke-width="1"/><polygon id="garden2-polygon28" points="1654.330000,161.530000 1693.780000,158.660000 1685.350000,218.400000 1661.420000,218.400000 1654.330000,161.530000" fill="rgb(250,159,16)" stroke="none" stroke-width="1"/><path id="garden2-path130" d="M1672.900000,177.760000C1672.900000,177.760000,1679.600000,157.840000,1707.360000,165.890000C1707.360000,165.890000,1694.340000,182.160000,1672.900000,177.760000Z" transform="matrix(1 0 0 1 0 -34.92000000000000)" fill="rgb(109,165,111)" stroke="none" stroke-width="1"/><path id="garden2-path131" d="M1665.430000,177C1665.430000,177,1644.750000,182.940000,1630.430000,165.130000C1630.390000,165.120000,1655.660000,157.270000,1665.430000,177Z" transform="matrix(1 0 0 1 0 -34.92000000000000)" fill="rgb(109,165,111)" stroke="none" stroke-width="1"/><path id="garden2-path132" d="M1667.920000,183.120000L1670.410000,183.120000C1670.410000,183.120000,1662.750000,164.740000,1667.920000,132.950000L1673.090000,111.890000L1668.300000,110.890000C1668.549745,120.592511,1667.322378,130.276574,1664.660000,139.610000C1661.997622,148.943426,1662.360000,152.100000,1667.920000,183.120000Z" transform="matrix(1 0 0 1 0 -34.92000000000000)" fill="rgb(109,165,111)" stroke="none" stroke-width="1"/><path id="garden2-path133" d="M1667.730000,154.590000C1667.730000,154.590000,1679.790000,134.670000,1703.530000,147.020000C1703.530000,147,1689.750000,161.480000,1667.730000,154.590000Z" transform="matrix(1 0 0 1 0 -34.92000000000000)" fill="rgb(109,165,111)" stroke="none" stroke-width="1"/><path id="garden2-path134" d="M1661.410000,153.440000C1661.410000,153.440000,1655.660000,133.140000,1628.090000,138.120000C1628.090000,138.120000,1638.050000,155.930000,1661.410000,153.440000Z" transform="matrix(1 0 0 1 0 -34.92000000000000)" fill="rgb(109,165,111)" stroke="none" stroke-width="1"/><path id="garden2-path135" d="M1671.560000,131.420000C1671.560000,131.420000,1679.020000,116.670000,1699.700000,125.100000C1699.700000,125.100000,1687.260000,136.780000,1671.560000,131.420000Z" transform="matrix(1 0 0 1 0 -34.92000000000000)" fill="rgb(109,165,111)" stroke="none" stroke-width="1"/><path id="garden2-path136" d="M1662.940000,131C1662.940000,131,1659.880000,115.480000,1637.470000,119.310000C1637.470000,119.350000,1644.940000,132.760000,1662.940000,131Z" transform="matrix(1 0 0 1 0 -34.92000000000000)" fill="rgb(109,165,111)" stroke="none" stroke-width="1"/><path id="garden2-path137" d="M1669.560000,101.160000L1666.560000,97.910000C1666.560000,97.910000,1660.240000,106.140000,1671.560000,108.440000C1671.560000,108.440000,1684,110.550000,1680.560000,100.590000L1677.110000,100.780000L1674.430000,96.780000Z" transform="matrix(1 0 0 1 0 -34.92000000000000)" fill="rgb(109,165,111)" stroke="none" stroke-width="1"/><path id="garden2-path138" d="M1678.640000,98.290000C1678.640000,98.290000,1687.450000,66.890000,1703.530000,78.950000C1703.530000,79,1725.750000,90.820000,1678.640000,98.290000Z" transform="matrix(1 0 0 1 0 -34.92000000000000)" fill="rgb(114,151,201)" stroke="none" stroke-width="1"/><path id="garden2-path139" d="M1671.560000,96.760000C1671.560000,96.760000,1647.050000,51.380000,1673.090000,63.250000C1673.090000,63.250000,1692.240000,67.080000,1671.560000,96.760000Z" transform="matrix(1 0 0 1 0 -34.92000000000000)" fill="rgb(114,151,201)" stroke="none" stroke-width="1"/><path id="garden2-path140" d="M1668.640000,96.760000C1668.640000,96.760000,1656.640000,67.460000,1645.700000,77.420000C1645.700000,77.420000,1618.430000,89.870000,1668.640000,96.760000Z" transform="matrix(1 0 0 1 0 -34.92000000000000)" fill="rgb(114,151,201)" stroke="none" stroke-width="1"/></g></svg>