<svg id="pan" xmlns="http://www.w3.org/2000/svg" xmlns:xlink="http://www.w3.org/1999/xlink" viewBox="0 0 259.460000 336.610000" shape-rendering="geometricPrecision" text-rendering="geometricPrecision" width="259.460000" height="336.610000"><style><![CDATA[#pan-path3_to {animation: pan-path3_to__to 3000ms infinite linear}@keyframes pan-path3_to__to { 0% {transform: translate(-24.659627px,-10.740000px)} 50% {transform: translate(-42.886995px,-12.427596px)} 100% {transform: translate(-24.660000px,-10.740000px)} }#pan-path4_to {animation: pan-path4_to__to 3000ms infinite linear}@keyframes pan-path4_to__to { 0% {transform: translate(-24.660000px,-10.740000px)} 50% {transform: translate(-40.182052px,-9.950000px)} 100% {transform: translate(-24.660000px,-10.740000px)} }#pan-path7_tr {animation: pan-path7_tr__tr 3000ms infinite linear}@keyframes pan-path7_tr__tr { 0% {transform: translate(-28.958449px,-1.175420px) rotate(0deg)} 50% {transform: translate(-28.958449px,-1.175420px) rotate(-5.284846deg)} 100% {transform: translate(-28.958449px,-1.175420px) rotate(0deg)} }#pan-path8_tr {animation: pan-path8_tr__tr 3000ms infinite linear}@keyframes pan-path8_tr__tr { 0% {transform: translate(-24.660000px,-10.740000px) rotate(-4.594294deg)} 50% {transform: translate(-24.660000px,-10.740000px) rotate(4.862296deg)} 100% {transform: translate(-24.660000px,-10.740000px) rotate(0deg)} }]]></style><g id="pan-layer-3"><path id="pan-path1" d="M41.890000,152.700000C41.890000,152.700000,41.890000,153.240000,41.890000,154.230000C42.410000,165.230000,48.700000,232.450000,124.890000,244.930000L126.140000,245.130000L129,282.910000L156,292.620000L196.850000,283.170000L191.750000,264.530000L191,239.770000C191,239.770000,212.450000,232.110000,223.940000,215.510000C223.940000,215.510000,261.210000,202.510000,269.640000,174.910000C278.070000,147.310000,254.320000,142,254.320000,142L224.450000,79.430000C224.450000,79.430000,184.620000,64.620000,179.260000,63.340000C173.900000,62.060000,114.910000,63.340000,114.910000,63.340000L83.510000,85.550000L43.430000,120.550000Z" transform="matrix(1 0 0 1 -24.66000000000000 -10.74000000000000)" fill="rgb(252,214,183)" stroke="rgb(48,0,0)" stroke-width="3" stroke-miterlimit="10"/></g><g id="pan-layer-7"><path id="pan-path2" d="M166.350000,201.300000C161.080000,200.020000,155.280000,199.700000,140.350000,202.360000C128.140000,204.530000,122.790000,206.360000,117.630000,209.290000C110.210000,213.480000,109.790000,216.140000,109.730000,216.970000C109.370000,222.240000,118.350000,226.640000,120.980000,227.970000C132.740000,233.720000,144.400000,231.810000,149.070000,230.970000C155.870000,229.770000,168.770000,227.480000,174.070000,217.660000C174.810000,216.300000,177.750000,211,175.590000,206.660000C174.690000,204.920000,172.760000,202.850000,166.350000,201.300000Z" transform="matrix(1 0 0 1 -24.66000000000000 -10.74000000000000)" fill="rgb(219,141,141)" stroke="rgb(48,0,0)" stroke-width="3" stroke-miterlimit="10"/></g><g id="pan-layer-5"><g id="pan-path3_to" transform="translate(-24.659627,-10.740000)"><path id="pan-path3" d="M70.770000,162.590000C70.770000,162.590000,69.360000,182.700000,90,185C90,185,110,185.800000,106.320000,161.270000" transform="translate(0,0)" fill="rgb(57,0,0)" stroke="none" stroke-width="1"/></g><line id="pan-line1" x1="81.680000" y1="150.530000" x2="46.090000" y2="151.840000" fill="rgb(57,0,0)" stroke="none" stroke-width="1"/><g id="pan-path4_to" transform="translate(-24.660000,-10.740000)"><path id="pan-path4" d="M172.230000,162.060000C172.230000,162.060000,170.570000,182.910000,189.230000,182.520000C207.890000,182.130000,207.100000,162.200000,207.100000,162.200000L207.100000,160.480000L172.200000,160.480000L172.200000,162.060000L172.200000,162.060000" transform="translate(0,0)" fill="rgb(57,0,0)" stroke="none" stroke-width="1"/></g></g><g id="pan-layer-4"><path id="pan-path5" d="M148.620000,158.830000C148.620000,158.830000,199.680000,159.830000,208.620000,157.300000C208.620000,157.300000,213.720000,160.870000,203.510000,162.400000L194.320000,163.400000C194.320000,163.400000,152.960000,163.910000,151.170000,163.400000C149.380000,162.890000,145.460000,160.620000,148.620000,158.830000Z" transform="matrix(1 0 0 1 -24.66000000000000 -10.74000000000000)" fill="rgb(57,0,0)" stroke="none" stroke-width="1"/><path id="pan-path6" d="M47.260000,159.600000C47.260000,159.600000,86.960000,167.100000,109.430000,160.480000C109.430000,160.480000,110.430000,158.320000,108.430000,157.940000C108.430000,157.940000,58.520000,159.210000,49.330000,156.790000C49.300000,156.790000,45.340000,157,47.260000,159.600000Z" transform="matrix(1 0 0 1 -24.66000000000000 -10.74000000000000)" fill="rgb(57,0,0)" stroke="none" stroke-width="1"/><g id="pan-path7_tr" transform="translate(-28.958449,-1.175420) rotate(0)"><path id="pan-path7" d="M163.360000,132.150000C163.360000,132.150000,194.360000,130.430000,208.360000,136.550000C208.360000,136.550000,214.870000,142.110000,205.300000,142.300000C205.300000,142.300000,177.530000,139.390000,161.640000,137.110000C145.750000,134.830000,163.360000,132.150000,163.360000,132.150000Z" transform="translate(0,0)" fill="rgb(57,0,0)" stroke="none" stroke-width="1"/></g><g id="pan-path8_tr" transform="translate(-24.660000,-10.740000) rotate(-4.594294)"><path id="pan-path8" d="M57.280000,143.640000C57.280000,143.640000,95,139,111.090000,141.530000C127.180000,144.060000,101.510000,133.270000,101.510000,133.270000C101.510000,133.270000,29.700000,134.640000,57.280000,143.640000Z" transform="translate(0,0)" fill="rgb(57,0,0)" stroke="none" stroke-width="1"/></g></g><g id="pan-layer-2"><path id="pan-path9" d="M195.530000,37.360000C195.530000,37.360000,183.850000,12,138.150000,13.300000C138.150000,13.300000,125.380000,11,78.910000,36.300000C78.910000,36.300000,54.150000,53.660000,34.230000,40.380000C34.230000,40.380000,33.470000,64.380000,60.790000,63.110000C60.790000,63.110000,18.400000,102.420000,35.260000,138.930000L28.360000,152.470000C28.360000,152.470000,53.360000,157.830000,86.060000,130.250000L79.680000,152.890000L81.980000,155.280000C81.980000,155.280000,122.570000,151.700000,129.470000,144.040000C129.470000,144.040000,128.470000,158.590000,131.770000,162.170000C131.770000,162.170000,174.660000,145.570000,172.870000,90.170000L175.940000,91.170000L179,89.380000C179,89.380000,176.450000,82.230000,177,79.940000C177,79.940000,190.530000,88.870000,192.060000,98.320000L205.550000,97C205.550000,97,192.790000,138.620000,226.230000,154.450000C226.230000,154.450000,226.490000,137.850000,256.110000,141.940000C256.110000,141.940000,263,137.600000,259.680000,120.750000C259.680000,120.750000,280.620000,114.110000,281.380000,99.300000C281.380000,99.300000,263.510000,109.770000,256.620000,95.470000C249.730000,81.170000,243.090000,42.660000,218.830000,37C218.830000,37,209.770000,32.060000,195.530000,37.360000Z" transform="matrix(1 0 0 1 -24.66000000000000 -10.74000000000000)" fill="rgb(57,47,43)" stroke="rgb(48,0,0)" stroke-width="5" stroke-miterlimit="10"/></g><g id="pan-layer-6"><path id="pan-path10" d="M56.550000,300C56.550000,300,97.400000,271.430000,126.550000,267.340000C126.550000,267.340000,140.080000,316.110000,191.400000,266.060000C191.400000,266.060000,227.400000,269.340000,260.080000,300L256.510000,343.680000L61.440000,333.680000L40,331.940000Z" transform="matrix(1 0 0 1 -24.66000000000000 -10.74000000000000)" fill="rgb(51,30,30)" stroke="rgb(48,0,0)" stroke-width="7" stroke-miterlimit="10"/></g></svg>